<?xml version="1.0" encoding="UTF-8" standalone="no"?>
<!-- Created with Inkscape (http://www.inkscape.org/) -->

<svg
   xmlns:dc="http://purl.org/dc/elements/1.1/"
   xmlns:cc="http://creativecommons.org/ns#"
   xmlns:rdf="http://www.w3.org/1999/02/22-rdf-syntax-ns#"
   xmlns:svg="http://www.w3.org/2000/svg"
   xmlns="http://www.w3.org/2000/svg"
   xmlns:sodipodi="http://sodipodi.sourceforge.net/DTD/sodipodi-0.dtd"
   xmlns:inkscape="http://www.inkscape.org/namespaces/inkscape"
   version="1.1"
   id="svg2"
   xml:space="preserve"
   width="210"
   height="50"
   viewBox="0 0 210 50"
   sodipodi:docname="drk-logo-tettnang-lang-sw.svg"
   inkscape:version="0.92.5 (2060ec1f9f, 2020-04-08)"><metadata
     id="metadata8"><rdf:RDF><cc:Work
         rdf:about=""><dc:format>image/svg+xml</dc:format><dc:type
           rdf:resource="http://purl.org/dc/dcmitype/StillImage" /><dc:title /></cc:Work></rdf:RDF></metadata><defs
     id="defs6" /><sodipodi:namedview
     pagecolor="#ffffff"
     bordercolor="#666666"
     borderopacity="1"
     objecttolerance="10"
     gridtolerance="10"
     guidetolerance="10"
     inkscape:pageopacity="0"
     inkscape:pageshadow="2"
     inkscape:window-width="1920"
     inkscape:window-height="1080"
     id="namedview4"
     showgrid="false"
     inkscape:zoom="5.6568543"
     inkscape:cx="104.14297"
     inkscape:cy="28.125949"
     inkscape:window-x="1636"
     inkscape:window-y="379"
     inkscape:window-maximized="0"
     inkscape:current-layer="g10" /><g
     id="g10"
     inkscape:groupmode="layer"
     inkscape:label="drk-logo-tettnang-longish"
     transform="matrix(1.3333333,0,0,-1.3333333,0,49.999884)"><path
   inkscape:connector-curvature="0"
   id="path876"
   style="fill:#a6a6a6;fill-opacity:1;fill-rule:nonzero;stroke:none;stroke-width:0.03416497"
   d="m 133.73924,26.258562 h 5.77354 v 5.773333 h 5.77388 v -5.773333 h 5.7732 v -5.773368 h -5.7732 v -5.773333 h -5.77388 v 5.773333 h -5.77354 v 5.773368" /><path
   inkscape:connector-curvature="0"
   id="path878"
   style="fill:#231f20;fill-opacity:1;fill-rule:nonzero;stroke:none;stroke-width:0.03416497"
   d="m 8.2322797,21.965631 h 1.5474306 c 1.0058547,0 1.9674277,0.61924 1.9674277,2.365548 0,1.591473 -0.55279,2.608393 -2.2770477,2.608393 H 8.2322797 Z m -1.7353413,6.432888 h 3.4042181 c 2.0448215,0 3.5813225,-1.282109 3.5813225,-3.901606 0,-2.288096 -1.171756,-3.990366 -3.5813225,-3.990366 H 6.4969384 v 7.891972" /><path
   inkscape:connector-curvature="0"
   id="path880"
   style="fill:#231f20;fill-opacity:1;fill-rule:nonzero;stroke:none;stroke-width:0.03416497"
   d="m 18.279172,23.97723 c -0.143458,0.795805 -0.48603,1.215931 -1.248729,1.215931 -0.994952,0 -1.28228,-0.773768 -1.304282,-1.215931 z m -2.553011,-0.994508 c 0.04404,-0.994782 0.530479,-1.448151 1.403702,-1.448151 0.629899,0 1.138377,0.387021 1.237797,0.740697 h 1.381563 c -0.442027,-1.348594 -1.381563,-1.923522 -2.674742,-1.923522 -1.801689,0 -2.91779,1.238207 -2.91779,3.006654 0,1.713202 1.182449,3.01745 2.91779,3.01745 1.945388,0 2.884925,-1.635887 2.774572,-3.393128 h -4.122892" /><path
   inkscape:connector-curvature="0"
   id="path882"
   style="fill:#231f20;fill-opacity:1;fill-rule:nonzero;stroke:none;stroke-width:0.03416497"
   d="m 26.137799,20.506547 h -1.492326 v 0.796078 h -0.03311 c -0.397953,-0.641242 -1.083269,-0.950879 -1.746274,-0.950879 -1.66913,0 -2.08888,0.939947 -2.08888,2.354445 v 3.514858 h 1.56947 v -3.227394 c 0,-0.939674 0.276258,-1.403702 1.005612,-1.403702 0.851049,0 1.216033,0.475132 1.216033,1.635784 v 2.995312 h 1.569471 v -5.714502" /><path
   inkscape:connector-curvature="0"
   id="path884"
   style="fill:#231f20;fill-opacity:1;fill-rule:nonzero;stroke:none;stroke-width:0.03416497"
   d="m 29.387195,26.221049 h 1.149344 v -1.050027 h -1.149344 v -2.829679 c 0,-0.530514 0.132799,-0.66304 0.663279,-0.66304 0.165768,0 0.320296,0.01107 0.486065,0.04431 v -1.227 c -0.265189,-0.04418 -0.607898,-0.05511 -0.917125,-0.05511 -0.961949,0 -1.801655,0.220876 -1.801655,1.359253 v 3.371262 h -0.950641 v 1.050027 h 0.950641 v 1.713441 h 1.569436 v -1.713441" /><path
   inkscape:connector-curvature="0"
   id="path886"
   style="fill:#231f20;fill-opacity:1;fill-rule:nonzero;stroke:none;stroke-width:0.03416497"
   d="m 32.603519,22.363619 c 0.01093,-0.685316 0.585861,-0.961574 1.204726,-0.961574 0.453061,0 1.027989,0.177248 1.027989,0.729764 0,0.475098 -0.652311,0.640867 -1.779619,0.884155 -0.906601,0.198841 -1.812759,0.519274 -1.812759,1.524988 0,1.459083 1.260243,1.834898 2.486971,1.834898 1.2489,0 2.39862,-0.420127 2.520076,-1.823692 h -1.492052 c -0.04445,0.607795 -0.508478,0.773666 -1.072336,0.773666 -0.353676,0 -0.873223,-0.06621 -0.873223,-0.530616 0,-0.563722 0.884566,-0.64114 1.779654,-0.850947 0.917261,-0.210046 1.812759,-0.541822 1.812759,-1.602918 0,-1.502746 -1.304282,-1.989597 -2.608803,-1.989597 -1.326182,0 -2.61936,0.497544 -2.685435,2.011873 h 1.492052" /><path
   inkscape:connector-curvature="0"
   id="path888"
   style="fill:#231f20;fill-opacity:1;fill-rule:nonzero;stroke:none;stroke-width:0.03416497"
   d="m 41.136118,24.209313 c -0.09942,0.64114 -0.508511,0.983848 -1.160447,0.983848 -1.005988,0 -1.337627,-1.016818 -1.337627,-1.8569 0,-0.817841 0.320672,-1.80169 1.304282,-1.80169 0.729832,0 1.149719,0.464439 1.249139,1.160277 h 1.514192 c -0.19884,-1.513918 -1.24873,-2.343102 -2.751988,-2.343102 -1.724682,0 -2.885095,1.216205 -2.885095,2.929134 0,1.779755 1.060993,3.09497 2.91803,3.09497 1.348354,0 2.586493,-0.707454 2.685913,-2.166537 h -1.536399" /><path
   inkscape:connector-curvature="0"
   id="path890"
   style="fill:#231f20;fill-opacity:1;fill-rule:nonzero;stroke:none;stroke-width:0.03416497"
   d="m 43.589846,28.398519 h 1.569539 v -2.973275 h 0.03314 c 0.39768,0.64114 1.08303,0.950606 1.668959,0.950606 1.6693,0 2.088846,-0.939537 2.088846,-2.354308 v -3.514995 h -1.569197 v 3.227668 c 0,0.9394 -0.276395,1.403838 -1.006158,1.403838 -0.850708,0 -1.21559,-0.475508 -1.21559,-1.636058 v -2.995448 h -1.569539 v 7.891972" /><path
   inkscape:connector-curvature="0"
   id="path892"
   style="fill:#231f20;fill-opacity:1;fill-rule:nonzero;stroke:none;stroke-width:0.03416497"
   d="m 53.913134,23.97723 c -0.143493,0.795805 -0.486168,1.215931 -1.249072,1.215931 -0.994884,0 -1.282211,-0.773768 -1.304077,-1.215931 z m -2.553149,-0.994508 c 0.04407,-0.994782 0.530582,-1.448151 1.403497,-1.448151 0.630002,0 1.138377,0.387021 1.237797,0.740697 h 1.381632 c -0.442095,-1.348594 -1.381632,-1.923522 -2.674776,-1.923522 -1.801177,0 -2.917688,1.238207 -2.917688,3.006654 0,1.713202 1.182449,3.01745 2.917688,3.01745 1.945695,0 2.885232,-1.635887 2.774537,-3.393128 h -4.122687" /><path
   inkscape:connector-curvature="0"
   id="path894"
   style="fill:#231f20;fill-opacity:1;fill-rule:nonzero;stroke:none;stroke-width:0.03416497"
   d="m 57.626866,22.363619 c 0.01093,-0.685316 0.585929,-0.961574 1.204657,-0.961574 0.453027,0 1.028024,0.177248 1.028024,0.729764 0,0.475098 -0.65221,0.640867 -1.779654,0.884155 -0.906396,0.198841 -1.812793,0.519274 -1.812793,1.524988 0,1.459083 1.260346,1.834898 2.48721,1.834898 1.24873,0 2.398381,-0.420127 2.520008,-1.823692 h -1.492326 c -0.04441,0.607795 -0.508375,0.773666 -1.072097,0.773666 -0.353607,0 -0.873256,-0.06621 -0.873256,-0.530616 0,-0.563722 0.884189,-0.64114 1.779653,-0.850947 0.91733,-0.210046 1.812793,-0.541822 1.812793,-1.602918 0,-1.502746 -1.304418,-1.989597 -2.608495,-1.989597 -1.326626,0 -2.61977,0.497544 -2.685708,2.011873 h 1.491984" /><path
   inkscape:connector-curvature="0"
   id="path896"
   style="fill:#231f20;fill-opacity:1;fill-rule:nonzero;stroke:none;stroke-width:0.03416497"
   d="m 67.320151,24.828553 h 1.900939 c 0.773837,0 1.193383,0.3314 1.193383,1.12717 0,0.762733 -0.419546,1.094373 -1.193383,1.094373 h -1.900939 z m -1.73558,3.569966 h 4.255588 c 1.41443,0 2.310236,-0.983678 2.310236,-2.17747 0,-0.928331 -0.376157,-1.624818 -1.249413,-1.978357 v -0.02217 c 0.851049,-0.220979 1.094304,-1.050163 1.149651,-1.845831 0.03314,-0.497135 0.02221,-1.425704 0.3314,-1.868141 h -1.735239 c -0.209773,0.497545 -0.187907,1.260107 -0.276053,1.890417 -0.121969,0.828773 -0.442094,1.193382 -1.315351,1.193382 H 67.320151 V 20.50655 h -1.73558 v 7.891972" /><path
   inkscape:connector-curvature="0"
   id="path898"
   style="fill:#231f20;fill-opacity:1;fill-rule:nonzero;stroke:none;stroke-width:0.03416497"
   d="m 76.029485,21.534571 c 1.072097,0 1.392565,0.917535 1.392565,1.823829 0,0.917398 -0.320468,1.834761 -1.392565,1.834761 -1.060822,0 -1.381631,-0.917363 -1.381631,-1.834761 0,-0.906294 0.320809,-1.823829 1.381631,-1.823829 z m 0,4.841279 c 1.801519,0 2.962103,-1.193758 2.962103,-3.01745 0,-1.812486 -1.160584,-3.006654 -2.962103,-3.006654 -1.790586,0 -2.95117,1.194168 -2.95117,3.006654 0,1.823692 1.160584,3.01745 2.95117,3.01745" /><path
   inkscape:connector-curvature="0"
   id="path900"
   style="fill:#231f20;fill-opacity:1;fill-rule:nonzero;stroke:none;stroke-width:0.03416497"
   d="m 81.975898,26.221049 h 1.14931 v -1.050027 h -1.14931 v -2.829679 c 0,-0.530514 0.132902,-0.66304 0.663142,-0.66304 0.165701,0 0.320468,0.01107 0.486168,0.04431 v -1.227 c -0.265462,-0.04418 -0.607795,-0.05511 -0.916988,-0.05511 -0.961744,0 -1.80186,0.220876 -1.80186,1.359253 v 3.371262 h -0.95047 v 1.050027 h 0.95047 v 1.713441 h 1.569538 v -1.713441" /><path
   inkscape:connector-curvature="0"
   id="path902"
   style="fill:#231f20;fill-opacity:1;fill-rule:nonzero;stroke:none;stroke-width:0.03416497"
   d="m 87.75627,23.97723 c -0.143493,0.795805 -0.486168,1.215931 -1.24873,1.215931 -0.994884,0 -1.282211,-0.773768 -1.304419,-1.215931 z m -2.553149,-0.994508 c 0.04407,-0.994782 0.530582,-1.448151 1.403839,-1.448151 0.630002,0 1.138377,0.387021 1.237797,0.740697 h 1.381631 c -0.441753,-1.348594 -1.381631,-1.923522 -2.674434,-1.923522 -1.802202,0 -2.918371,1.238207 -2.918371,3.006654 0,1.713202 1.183133,3.01745 2.918371,3.01745 1.945012,0 2.884207,-1.635887 2.773854,-3.393128 h -4.122687" /><path
   inkscape:connector-curvature="0"
   id="path904"
   style="fill:#231f20;fill-opacity:1;fill-rule:nonzero;stroke:none;stroke-width:0.03416497"
   d="m 91.470002,22.363619 c 0.01093,-0.685316 0.585929,-0.961574 1.204998,-0.961574 0.453028,0 1.028024,0.177248 1.028024,0.729764 0,0.475098 -0.652551,0.640867 -1.779653,0.884155 -0.906738,0.198841 -1.813135,0.519274 -1.813135,1.524988 0,1.459083 1.260004,1.834898 2.48721,1.834898 1.249071,0 2.398381,-0.420127 2.520008,-1.823692 h -1.492326 c -0.04373,0.607795 -0.508375,0.773666 -1.072097,0.773666 -0.353265,0 -0.872915,-0.06621 -0.872915,-0.530616 0,-0.563722 0.884532,-0.64114 1.779654,-0.850947 0.916988,-0.210046 1.812451,-0.541822 1.812451,-1.602918 0,-1.502746 -1.304077,-1.989597 -2.608495,-1.989597 -1.325943,0 -2.619428,0.497544 -2.685708,2.011873 h 1.491984" /><path
   inkscape:connector-curvature="0"
   id="path906"
   style="fill:#231f20;fill-opacity:1;fill-rule:nonzero;stroke:none;stroke-width:0.03416497"
   d="m 99.427707,28.398519 h 1.735243 v -3.271672 l 3.08407,3.271672 h 2.1664 l -3.08373,-3.117007 3.38233,-4.774965 h -2.17768 l -2.37617,3.548101 -0.99522,-1.005851 v -2.54225 h -1.735243 v 7.891972" /><path
   inkscape:connector-curvature="0"
   id="path908"
   style="fill:#231f20;fill-opacity:1;fill-rule:nonzero;stroke:none;stroke-width:0.03416497"
   d="m 107.24226,26.221049 h 1.49233 v -1.061096 h 0.0219 c 0.28733,0.71866 1.06082,1.215897 1.82373,1.215897 0.11035,0 0.24325,-0.02214 0.34267,-0.05524 v -1.459083 c -0.14349,0.03311 -0.37615,0.05524 -0.56372,0.05524 -1.14965,0 -1.54767,-0.829013 -1.54767,-1.834762 v -2.575458 h -1.5692 v 5.714502" /><path
   inkscape:connector-curvature="0"
   id="path910"
   style="fill:#231f20;fill-opacity:1;fill-rule:nonzero;stroke:none;stroke-width:0.03416497"
   d="m 115.19108,23.97723 c -0.14349,0.795805 -0.48617,1.215931 -1.24873,1.215931 -0.99488,0 -1.28221,-0.773768 -1.30442,-1.215931 z m -2.55315,-0.994508 c 0.0441,-0.994782 0.53059,-1.448151 1.40384,-1.448151 0.63,0 1.13838,0.387021 1.2378,0.740697 h 1.38163 c -0.44175,-1.348594 -1.38163,-1.923522 -2.67443,-1.923522 -1.80221,0 -2.91837,1.238207 -2.91837,3.006654 0,1.713202 1.18313,3.01745 2.91837,3.01745 1.94501,0 2.88455,-1.635887 2.77385,-3.393128 h -4.12269" /><path
   inkscape:connector-curvature="0"
   id="path912"
   style="fill:#231f20;fill-opacity:1;fill-rule:nonzero;stroke:none;stroke-width:0.03416497"
   d="m 122.95029,20.506547 h -1.49233 v 0.796078 h -0.0328 c -0.39802,-0.641242 -1.08371,-0.950879 -1.74651,-0.950879 -1.66896,0 -2.08919,0.939947 -2.08919,2.354445 v 3.514858 h 1.56954 v -3.227394 c 0,-0.939674 0.27674,-1.403702 1.00616,-1.403702 0.85105,0 1.21559,0.475132 1.21559,1.635784 v 2.995312 h 1.56954 v -5.714502" /><path
   inkscape:connector-curvature="0"
   id="path914"
   style="fill:#231f20;fill-opacity:1;fill-rule:nonzero;stroke:none;stroke-width:0.03416497"
   d="m 123.81193,21.689373 2.97372,3.349124 h -2.75233 v 1.182552 h 4.81863 v -1.182552 l -2.97304,-3.349124 h 3.18349 v -1.182826 h -5.25047 v 1.182826" /><g
   aria-label="Ortsverein Tettnang e.V."
   transform="scale(1,-1)"
   style="font-style:normal;font-variant:normal;font-weight:bold;font-stretch:normal;font-size:8.83286381px;line-height:125%;font-family:'Helvetica Neue';-inkscape-font-specification:'Helvetica Neue Bold';letter-spacing:0px;word-spacing:0px;fill:#000000;fill-opacity:1;stroke:none;stroke-width:0.82808095px;stroke-linecap:butt;stroke-linejoin:miter;stroke-opacity:1"
   id="text961"><path
     d="m 6.9959109,-10.432003 q 0,-0.521139 0.1324929,-1.01578 0.1413259,-0.49464 0.4239775,-0.883286 0.2914845,-0.397479 0.7419606,-0.635966 0.450476,-0.238487 1.0776094,-0.238487 0.6271333,0 1.0687767,0.238487 0.450476,0.238487 0.733127,0.635966 0.291485,0.388646 0.423978,0.883286 0.141326,0.494641 0.141326,1.01578 0,0.5123059 -0.141326,1.0157792 -0.132493,0.4946403 -0.423978,0.8921192 -0.282651,0.388646 -0.733127,0.6271333 -0.4416434,0.2384874 -1.0687767,0.2384874 -0.6271334,0 -1.0776094,-0.2384874 Q 7.8438658,-8.1354586 7.5523813,-8.5241046 7.2697297,-8.9215835 7.1284038,-9.4162238 6.9959109,-9.9196971 6.9959109,-10.432003 Z m -0.6006347,0 q 0,0.6536318 0.1854901,1.2454336 0.1854901,0.5918019 0.5564704,1.042278 0.3709803,0.450476 0.9274507,0.7242948 0.5653033,0.2649859 1.3072639,0.2649859 0.7419607,0 1.2984307,-0.2649859 0.556471,-0.2738188 0.927451,-0.7242948 0.37098,-0.4504761 0.55647,-1.042278 0.18549,-0.5918018 0.18549,-1.2454336 0,-0.653632 -0.18549,-1.245434 -0.18549,-0.591802 -0.55647,-1.042278 -0.37098,-0.459309 -0.927451,-0.724295 -0.55647,-0.273819 -1.2984307,-0.273819 -0.7419606,0 -1.3072639,0.273819 -0.5564704,0.264986 -0.9274507,0.724295 -0.3709803,0.450476 -0.5564704,1.042278 -0.1854901,0.591802 -0.1854901,1.245434 z"
     style="font-style:normal;font-variant:normal;font-weight:300;font-stretch:normal;font-family:'Helvetica Neue';-inkscape-font-specification:'Helvetica Neue Light';letter-spacing:0.00688175px;stroke-width:0.82808095px"
     id="path836" /><path
     d="m 13.176957,-11.836429 v 4.5577582 h 0.556471 v -2.4290375 q 0,-0.3621477 0.12366,-0.6624647 0.12366,-0.30915 0.344482,-0.529972 0.229654,-0.220822 0.538804,-0.335649 0.30915,-0.12366 0.688964,-0.105994 v -0.556471 q -0.618301,-0.0265 -1.068777,0.273819 -0.441643,0.300318 -0.653632,0.856788 h -0.01767 v -1.068777 z"
     style="font-style:normal;font-variant:normal;font-weight:300;font-stretch:normal;font-family:'Helvetica Neue';-inkscape-font-specification:'Helvetica Neue Light';letter-spacing:0.00688175px;stroke-width:0.82808095px"
     id="path838" /><path
     d="m 16.849466,-11.836429 v -1.369093 h -0.556471 v 1.369093 h -0.794958 v 0.468142 h 0.794958 v 3.1180012 q -0.0088,0.582969 0.211989,0.8037906 0.220821,0.2119887 0.777292,0.2119887 0.12366,0 0.24732,-0.00883 0.12366,-0.00883 0.24732,-0.00883 V -7.720314 q -0.238487,0.026499 -0.476974,0.026499 -0.300318,-0.017666 -0.379814,-0.1678244 -0.07066,-0.1589915 -0.07066,-0.4328103 v -3.0738369 h 0.92745 v -0.468142 z"
     style="font-style:normal;font-variant:normal;font-weight:300;font-stretch:normal;font-family:'Helvetica Neue';-inkscape-font-specification:'Helvetica Neue Light';letter-spacing:0.00688175px;stroke-width:0.82808095px"
     id="path840" /><path
     d="m 21.31694,-10.502666 h 0.55647 q -0.01767,-0.37098 -0.150159,-0.644799 -0.132493,-0.273819 -0.362147,-0.459309 -0.220822,-0.18549 -0.521139,-0.273819 -0.291485,-0.08833 -0.635966,-0.08833 -0.300318,0 -0.609468,0.07066 -0.300317,0.07066 -0.547637,0.220822 -0.247321,0.150159 -0.406312,0.397479 -0.150159,0.24732 -0.150159,0.591802 0,0.291484 0.09716,0.49464 0.09716,0.1943232 0.264986,0.335649 0.176657,0.1324929 0.406311,0.2296544 0.229655,0.088329 0.503474,0.1589916 l 0.715462,0.1589915 q 0.18549,0.044164 0.362147,0.1059944 0.18549,0.06183 0.326816,0.1589916 0.141326,0.088329 0.220822,0.2296544 0.08833,0.132493 0.08833,0.3356488 0,0.2384874 -0.12366,0.4063118 -0.114827,0.1589915 -0.300317,0.2649859 -0.18549,0.1059943 -0.406312,0.1501587 -0.211989,0.044164 -0.415145,0.044164 -0.55647,0 -0.936283,-0.2826517 -0.37098,-0.2914845 -0.406312,-0.8567877 h -0.55647 q 0.07066,0.839122 0.565303,1.2189352 0.503473,0.3798131 1.307264,0.3798131 0.317983,0 0.644799,-0.070663 0.326816,-0.070663 0.582969,-0.2296545 0.264986,-0.1678244 0.43281,-0.4239774 0.167825,-0.2649859 0.167825,-0.6359662 0,-0.3003174 -0.114828,-0.521139 Q 21.802747,-9.2572323 21.617257,-9.407391 21.4406,-9.5575497 21.202112,-9.6458783 20.972458,-9.7430398 20.733971,-9.7783712 L 19.99201,-9.9461957 q -0.141326,-0.035331 -0.30915,-0.088328 -0.167825,-0.06183 -0.30915,-0.150159 -0.141326,-0.08833 -0.238488,-0.211989 -0.08833,-0.132493 -0.08833,-0.317983 0,-0.220821 0.09716,-0.37098 0.09716,-0.150159 0.256153,-0.238487 0.158992,-0.09716 0.344482,-0.132493 0.194323,-0.04417 0.379813,-0.04417 0.238487,0 0.450476,0.06183 0.211989,0.053 0.37098,0.176658 0.167825,0.12366 0.264986,0.317983 0.09716,0.18549 0.105995,0.441643 z"
     style="font-style:normal;font-variant:normal;font-weight:300;font-stretch:normal;font-family:'Helvetica Neue';-inkscape-font-specification:'Helvetica Neue Light';letter-spacing:0.00688175px;stroke-width:0.82808095px"
     id="path842" /><path
     d="m 22.330758,-11.836429 1.75774,4.5577582 H 24.6803 l 1.704743,-4.5577582 h -0.574136 l -1.413258,4.0012878 h -0.01767 l -1.430924,-4.0012878 z"
     style="font-style:normal;font-variant:normal;font-weight:300;font-stretch:normal;font-family:'Helvetica Neue';-inkscape-font-specification:'Helvetica Neue Light';letter-spacing:0.00688175px;stroke-width:0.82808095px"
     id="path844" /><path
     d="m 30.21655,-9.8755327 h -2.950177 q 0.03533,-0.3091503 0.141326,-0.6006343 0.114827,-0.300318 0.300317,-0.521139 0.185491,-0.229655 0.450477,-0.362148 0.264985,-0.141326 0.609467,-0.141326 0.335649,0 0.600635,0.141326 0.264986,0.132493 0.450476,0.362148 0.18549,0.220821 0.282652,0.512306 0.105994,0.291484 0.114827,0.6094673 z m -2.950177,0.4681417 h 3.506647 q 0.01767,-0.4769746 -0.08833,-0.936284 -0.105995,-0.468141 -0.353315,-0.821456 -0.238487,-0.362147 -0.627133,-0.582969 -0.388646,-0.220821 -0.936284,-0.220821 -0.538805,0 -0.936283,0.211988 -0.388646,0.203156 -0.635967,0.547638 -0.24732,0.335649 -0.37098,0.768459 -0.114827,0.43281 -0.114827,0.8832863 0,0.4858076 0.114827,0.9274507 0.12366,0.4328104 0.37098,0.7684592 0.247321,0.326816 0.635967,0.521139 0.397478,0.1854901 0.936283,0.1854901 0.865621,0 1.333763,-0.4239775 0.476974,-0.4239774 0.653631,-1.2012694 h -0.55647 q -0.132493,0.5299718 -0.476975,0.8479549 -0.344481,0.3179831 -0.953949,0.3179831 -0.397479,0 -0.68013,-0.1678244 -0.282652,-0.1678244 -0.468142,-0.4239775 -0.18549,-0.256153 -0.273819,-0.5741361 -0.0795,-0.326816 -0.0795,-0.6271334 z"
     style="font-style:normal;font-variant:normal;font-weight:300;font-stretch:normal;font-family:'Helvetica Neue';-inkscape-font-specification:'Helvetica Neue Light';letter-spacing:0.00688175px;stroke-width:0.82808095px"
     id="path846" /><path
     d="m 31.530687,-11.836429 v 4.5577582 h 0.55647 v -2.4290375 q 0,-0.3621477 0.12366,-0.6624647 0.12366,-0.30915 0.344482,-0.529972 0.229654,-0.220822 0.538805,-0.335649 0.30915,-0.12366 0.688963,-0.105994 v -0.556471 q -0.618301,-0.0265 -1.068777,0.273819 -0.441643,0.300318 -0.653632,0.856788 h -0.01766 v -1.068777 z"
     style="font-style:normal;font-variant:normal;font-weight:300;font-stretch:normal;font-family:'Helvetica Neue';-inkscape-font-specification:'Helvetica Neue Light';letter-spacing:0.00688175px;stroke-width:0.82808095px"
     id="path848" /><path
     d="m 37.437896,-9.8755327 h -2.950177 q 0.03533,-0.3091503 0.141326,-0.6006343 0.114827,-0.300318 0.300317,-0.521139 0.18549,-0.229655 0.450476,-0.362148 0.264986,-0.141326 0.609468,-0.141326 0.335649,0 0.600635,0.141326 0.264986,0.132493 0.450476,0.362148 0.18549,0.220821 0.282651,0.512306 0.105995,0.291484 0.114828,0.6094673 z m -2.950177,0.4681417 h 3.506647 q 0.01767,-0.4769746 -0.08833,-0.936284 -0.105994,-0.468141 -0.353314,-0.821456 -0.238487,-0.362147 -0.627133,-0.582969 -0.388646,-0.220821 -0.936284,-0.220821 -0.538805,0 -0.936284,0.211988 -0.388646,0.203156 -0.635966,0.547638 -0.24732,0.335649 -0.37098,0.768459 -0.114827,0.43281 -0.114827,0.8832863 0,0.4858076 0.114827,0.9274507 0.12366,0.4328104 0.37098,0.7684592 0.24732,0.326816 0.635966,0.521139 0.397479,0.1854901 0.936284,0.1854901 0.865621,0 1.333762,-0.4239775 0.476975,-0.4239774 0.653632,-1.2012694 h -0.55647 q -0.132493,0.5299718 -0.476975,0.8479549 -0.344481,0.3179831 -0.953949,0.3179831 -0.397479,0 -0.68013,-0.1678244 -0.282652,-0.1678244 -0.468142,-0.4239775 -0.18549,-0.256153 -0.273819,-0.5741361 -0.0795,-0.326816 -0.0795,-0.6271334 z"
     style="font-style:normal;font-variant:normal;font-weight:300;font-stretch:normal;font-family:'Helvetica Neue';-inkscape-font-specification:'Helvetica Neue Light';letter-spacing:0.00688175px;stroke-width:0.82808095px"
     id="path850" /><path
     d="m 38.760865,-13.585336 v 0.89212 h 0.556471 v -0.89212 z m 0,1.748907 v 4.5577582 h 0.556471 v -4.5577582 z"
     style="font-style:normal;font-variant:normal;font-weight:300;font-stretch:normal;font-family:'Helvetica Neue';-inkscape-font-specification:'Helvetica Neue Light';letter-spacing:0.00688175px;stroke-width:0.82808095px"
     id="path852" /><path
     d="m 40.384157,-11.836429 v 4.5577582 h 0.55647 v -2.658692 q 0.0088,-0.3356492 0.105994,-0.6183002 0.105995,-0.291485 0.282652,-0.494641 0.18549,-0.211988 0.441643,-0.326816 0.264986,-0.12366 0.600635,-0.12366 0.335649,0 0.55647,0.105995 0.229655,0.105994 0.362148,0.291484 0.132493,0.18549 0.18549,0.441643 0.053,0.247321 0.053,0.538805 v 2.8441822 h 0.55647 v -2.9325112 q 0,-0.406311 -0.0795,-0.733127 -0.0795,-0.326816 -0.273819,-0.547638 -0.194323,-0.229654 -0.521139,-0.353314 -0.317983,-0.12366 -0.794958,-0.12366 -0.485807,0 -0.892119,0.256153 -0.406312,0.24732 -0.565303,0.662464 h -0.01767 v -0.786125 z"
     style="font-style:normal;font-variant:normal;font-weight:300;font-stretch:normal;font-family:'Helvetica Neue';-inkscape-font-specification:'Helvetica Neue Light';letter-spacing:0.00688175px;stroke-width:0.82808095px"
     id="path854" /><path
     d="m 47.040222,-13.585336 v 0.512307 h 2.19055 v 5.7943582 h 0.600635 v -5.7943582 h 2.199383 v -0.512307 z"
     style="font-style:normal;font-variant:normal;font-weight:300;font-stretch:normal;font-family:'Helvetica Neue';-inkscape-font-specification:'Helvetica Neue Light';letter-spacing:0.00688175px;stroke-width:0.82808095px"
     id="path856" /><path
     d="m 54.820022,-9.8755327 h -2.950177 q 0.03533,-0.3091503 0.141326,-0.6006343 0.114827,-0.300318 0.300317,-0.521139 0.18549,-0.229655 0.450476,-0.362148 0.264986,-0.141326 0.609468,-0.141326 0.335649,0 0.600635,0.141326 0.264986,0.132493 0.450476,0.362148 0.18549,0.220821 0.282651,0.512306 0.105995,0.291484 0.114828,0.6094673 z m -2.950177,0.4681417 h 3.506647 q 0.01767,-0.4769746 -0.08833,-0.936284 -0.105994,-0.468141 -0.353314,-0.821456 -0.238488,-0.362147 -0.627134,-0.582969 -0.388646,-0.220821 -0.936283,-0.220821 -0.538805,0 -0.936284,0.211988 -0.388646,0.203156 -0.635966,0.547638 -0.24732,0.335649 -0.37098,0.768459 -0.114827,0.43281 -0.114827,0.8832863 0,0.4858076 0.114827,0.9274507 0.12366,0.4328104 0.37098,0.7684592 0.24732,0.326816 0.635966,0.521139 0.397479,0.1854901 0.936284,0.1854901 0.865621,0 1.333762,-0.4239775 0.476975,-0.4239774 0.653632,-1.2012694 h -0.55647 q -0.132493,0.5299718 -0.476975,0.8479549 -0.344482,0.3179831 -0.953949,0.3179831 -0.397479,0 -0.680131,-0.1678244 -0.282651,-0.1678244 -0.468141,-0.4239775 -0.185491,-0.256153 -0.273819,-0.5741361 -0.0795,-0.326816 -0.0795,-0.6271334 z"
     style="font-style:normal;font-variant:normal;font-weight:300;font-stretch:normal;font-family:'Helvetica Neue';-inkscape-font-specification:'Helvetica Neue Light';letter-spacing:0.00688175px;stroke-width:0.82808095px"
     id="path858" /><path
     d="m 57.017445,-11.836429 v -1.369093 h -0.556471 v 1.369093 h -0.794957 v 0.468142 h 0.794957 v 3.1180012 q -0.0088,0.582969 0.211989,0.8037906 0.220822,0.2119887 0.777292,0.2119887 0.12366,0 0.24732,-0.00883 0.12366,-0.00883 0.24732,-0.00883 V -7.720314 q -0.238487,0.026499 -0.476974,0.026499 -0.300318,-0.017666 -0.379813,-0.1678244 -0.07066,-0.1589915 -0.07066,-0.4328103 v -3.0738369 h 0.92745 v -0.468142 z"
     style="font-style:normal;font-variant:normal;font-weight:300;font-stretch:normal;font-family:'Helvetica Neue';-inkscape-font-specification:'Helvetica Neue Light';letter-spacing:0.00688175px;stroke-width:0.82808095px"
     id="path860" /><path
     d="m 59.638851,-11.836429 v -1.369093 h -0.55647 v 1.369093 h -0.794958 v 0.468142 h 0.794958 v 3.1180012 q -0.0088,0.582969 0.211989,0.8037906 0.220821,0.2119887 0.777292,0.2119887 0.12366,0 0.24732,-0.00883 0.12366,-0.00883 0.24732,-0.00883 V -7.720314 q -0.238487,0.026499 -0.476975,0.026499 -0.300317,-0.017666 -0.379813,-0.1678244 -0.07066,-0.1589915 -0.07066,-0.4328103 v -3.0738369 h 0.927451 v -0.468142 z"
     style="font-style:normal;font-variant:normal;font-weight:300;font-stretch:normal;font-family:'Helvetica Neue';-inkscape-font-specification:'Helvetica Neue Light';letter-spacing:0.00688175px;stroke-width:0.82808095px"
     id="path862" /><path
     d="m 61.368135,-11.836429 v 4.5577582 h 0.55647 v -2.658692 q 0.0088,-0.3356492 0.105995,-0.6183002 0.105994,-0.291485 0.282651,-0.494641 0.18549,-0.211988 0.441643,-0.326816 0.264986,-0.12366 0.600635,-0.12366 0.335649,0 0.556471,0.105995 0.229654,0.105994 0.362147,0.291484 0.132493,0.18549 0.18549,0.441643 0.053,0.247321 0.053,0.538805 v 2.8441822 h 0.556471 v -2.9325112 q 0,-0.406311 -0.0795,-0.733127 -0.0795,-0.326816 -0.273819,-0.547638 -0.194323,-0.229654 -0.521139,-0.353314 -0.317983,-0.12366 -0.794958,-0.12366 -0.485807,0 -0.892119,0.256153 -0.406312,0.24732 -0.565303,0.662464 h -0.01767 v -0.786125 z"
     style="font-style:normal;font-variant:normal;font-weight:300;font-stretch:normal;font-family:'Helvetica Neue';-inkscape-font-specification:'Helvetica Neue Light';letter-spacing:0.00688175px;stroke-width:0.82808095px"
     id="path864" /><path
     d="m 66.074093,-10.440836 h 0.55647 q 0.01767,-0.55647 0.353315,-0.803791 0.335648,-0.256153 0.86562,-0.256153 0.24732,0 0.459309,0.04417 0.220822,0.03533 0.379813,0.141325 0.167825,0.105995 0.256153,0.291485 0.09716,0.176657 0.09716,0.459309 0,0.18549 -0.053,0.300317 -0.04417,0.114827 -0.132493,0.18549 -0.08833,0.06183 -0.220822,0.088329 -0.132493,0.026499 -0.30915,0.044164 -0.450476,0.052997 -0.892119,0.1148273 -0.432811,0.052997 -0.786125,0.194323 -0.344482,0.1413258 -0.556471,0.4151446 -0.211988,0.2649859 -0.211988,0.7419605 0,0.3444817 0.114827,0.6006348 0.12366,0.2473202 0.326816,0.4151446 0.211988,0.1589915 0.485807,0.2296544 0.282652,0.079496 0.600635,0.079496 0.335649,0 0.574136,-0.06183 0.24732,-0.06183 0.43281,-0.1766573 0.194323,-0.1148272 0.344482,-0.2826517 0.158992,-0.1766572 0.30915,-0.3974788 h 0.01767 q 0,0.1766572 0.01767,0.3268159 0.0265,0.1413259 0.09716,0.2473202 0.07066,0.1059944 0.194323,0.1678244 0.132493,0.052997 0.344482,0.052997 0.114827,0 0.18549,-0.00883 0.0795,-0.00883 0.176657,-0.026498 V -7.782144 q -0.07949,0.035331 -0.176657,0.035331 -0.326816,0 -0.326816,-0.3356488 v -2.4202046 q 0,-0.459309 -0.150158,-0.741961 -0.150159,-0.291484 -0.388646,-0.450476 -0.238488,-0.158991 -0.538805,-0.211988 -0.300318,-0.06183 -0.600635,-0.06183 -0.397479,0 -0.724295,0.08833 -0.326816,0.08833 -0.574136,0.273819 -0.238487,0.18549 -0.379813,0.476975 -0.141326,0.291484 -0.167824,0.688963 z m 2.967842,0.6712976 v 0.7242949 q 0,0.3356488 -0.132493,0.6006347 -0.12366,0.2649859 -0.344482,0.450476 -0.211989,0.1854902 -0.503473,0.2826517 -0.291485,0.097162 -0.609468,0.097162 -0.194323,0 -0.379813,-0.06183 -0.18549,-0.06183 -0.326816,-0.1766572 -0.141326,-0.1236601 -0.229654,-0.2826517 -0.0795,-0.1678244 -0.0795,-0.3798131 0,-0.3356488 0.194323,-0.5123061 0.203156,-0.1854902 0.512306,-0.2826517 0.30915,-0.097162 0.680131,-0.1413258 0.379813,-0.052997 0.733127,-0.1148272 0.114828,-0.017666 0.264986,-0.06183 0.150159,-0.044164 0.203156,-0.1413258 z"
     style="font-style:normal;font-variant:normal;font-weight:300;font-stretch:normal;font-family:'Helvetica Neue';-inkscape-font-specification:'Helvetica Neue Light';letter-spacing:0.00688175px;stroke-width:0.82808095px"
     id="path866" /><path
     d="m 70.709382,-11.836429 v 4.5577582 h 0.556471 v -2.658692 q 0.0088,-0.3356492 0.105994,-0.6183002 0.105995,-0.291485 0.282652,-0.494641 0.18549,-0.211988 0.441643,-0.326816 0.264986,-0.12366 0.600635,-0.12366 0.335649,0 0.55647,0.105995 0.229655,0.105994 0.362148,0.291484 0.132493,0.18549 0.18549,0.441643 0.053,0.247321 0.053,0.538805 v 2.8441822 h 0.55647 v -2.9325112 q 0,-0.406311 -0.0795,-0.733127 -0.0795,-0.326816 -0.273819,-0.547638 -0.194323,-0.229654 -0.521139,-0.353314 -0.317983,-0.12366 -0.794958,-0.12366 -0.485807,0 -0.892119,0.256153 -0.406312,0.24732 -0.565303,0.662464 h -0.01767 v -0.786125 z"
     style="font-style:normal;font-variant:normal;font-weight:300;font-stretch:normal;font-family:'Helvetica Neue';-inkscape-font-specification:'Helvetica Neue Light';letter-spacing:0.00688175px;stroke-width:0.82808095px"
     id="path868" /><path
     d="m 79.319466,-7.6496511 v -4.1867779 h -0.556471 v 0.786125 h -0.01767 q -0.0795,-0.18549 -0.229655,-0.353314 -0.141326,-0.167825 -0.326816,-0.291485 -0.18549,-0.132493 -0.415144,-0.203156 -0.220822,-0.07066 -0.476975,-0.07066 -0.49464,0 -0.883286,0.18549 -0.379813,0.176657 -0.644799,0.49464 -0.256153,0.30915 -0.397479,0.733128 -0.132493,0.415144 -0.132493,0.8832861 0,0.4858075 0.114827,0.9186179 0.114827,0.4239774 0.362147,0.7419605 0.256154,0.3179831 0.6448,0.5034733 0.388646,0.1766572 0.936283,0.1766572 0.503473,0 0.874454,-0.256153 0.379813,-0.2561531 0.574136,-0.6801305 h 0.01767 v 0.6183004 q 0,0.8302892 -0.344481,1.2719324 -0.344482,0.4416432 -1.121774,0.4416432 -0.229654,0 -0.450476,-0.052997 -0.220822,-0.044164 -0.406312,-0.1501587 -0.176657,-0.1059943 -0.30915,-0.2826516 -0.12366,-0.1678244 -0.167824,-0.4239775 h -0.556471 q 0.0265,0.3621475 0.194323,0.6183005 0.176658,0.2649859 0.432811,0.4328103 0.264985,0.1678244 0.591801,0.2473202 0.326816,0.079496 0.671298,0.079496 0.556471,0 0.936284,-0.1501587 0.388646,-0.1501587 0.627133,-0.4328103 0.238487,-0.2826517 0.344482,-0.6889634 0.114827,-0.4063117 0.114827,-0.909785 z M 77.29674,-7.7998098 q -0.388646,0 -0.671298,-0.1501586 -0.282651,-0.1589916 -0.468141,-0.4063118 -0.18549,-0.256153 -0.273819,-0.582969 -0.08833,-0.3268159 -0.08833,-0.6712976 0,-0.3533146 0.0795,-0.6889632 0.08833,-0.344482 0.273819,-0.609468 0.18549,-0.264986 0.468142,-0.423977 0.282651,-0.167825 0.68013,-0.167825 0.397479,0 0.671298,0.167825 0.282651,0.167824 0.459309,0.441643 0.176657,0.273819 0.256153,0.609468 0.0795,0.3356483 0.0795,0.6712972 0,0.3444817 -0.09716,0.6712976 -0.08833,0.326816 -0.273819,0.582969 -0.18549,0.2473202 -0.459309,0.4063118 -0.273818,0.1501586 -0.635966,0.1501586 z"
     style="font-style:normal;font-variant:normal;font-weight:300;font-stretch:normal;font-family:'Helvetica Neue';-inkscape-font-specification:'Helvetica Neue Light';letter-spacing:0.00688175px;stroke-width:0.82808095px"
     id="path870" /><path
     d="m 86.125701,-9.8755327 h -2.950177 q 0.03533,-0.3091503 0.141326,-0.6006343 0.114827,-0.300318 0.300318,-0.521139 0.18549,-0.229655 0.450476,-0.362148 0.264986,-0.141326 0.609467,-0.141326 0.335649,0 0.600635,0.141326 0.264986,0.132493 0.450476,0.362148 0.18549,0.220821 0.282652,0.512306 0.105994,0.291484 0.114827,0.6094673 z m -2.950177,0.4681417 h 3.506647 q 0.01767,-0.4769746 -0.08833,-0.936284 -0.105995,-0.468141 -0.353315,-0.821456 -0.238487,-0.362147 -0.627133,-0.582969 -0.388646,-0.220821 -0.936284,-0.220821 -0.538805,0 -0.936283,0.211988 -0.388646,0.203156 -0.635967,0.547638 -0.24732,0.335649 -0.37098,0.768459 -0.114827,0.43281 -0.114827,0.8832863 0,0.4858076 0.114827,0.9274507 0.12366,0.4328104 0.37098,0.7684592 0.247321,0.326816 0.635967,0.521139 0.397478,0.1854901 0.936283,0.1854901 0.865621,0 1.333763,-0.4239775 0.476974,-0.4239774 0.653632,-1.2012694 h -0.556471 q -0.132493,0.5299718 -0.476975,0.8479549 -0.344481,0.3179831 -0.953949,0.3179831 -0.397479,0 -0.68013,-0.1678244 -0.282652,-0.1678244 -0.468142,-0.4239775 -0.18549,-0.256153 -0.273819,-0.5741361 -0.0795,-0.326816 -0.0795,-0.6271334 z"
     style="font-style:normal;font-variant:normal;font-weight:300;font-stretch:normal;font-family:'Helvetica Neue';-inkscape-font-specification:'Helvetica Neue Light';letter-spacing:0.00688175px;stroke-width:0.82808095px"
     id="path872" /><path
     d="m 87.76665,-7.2786708 h 0.74196 v -0.9362836 h -0.74196 z"
     style="font-style:normal;font-variant:normal;font-weight:300;font-stretch:normal;font-family:'Helvetica Neue';-inkscape-font-specification:'Helvetica Neue Light';letter-spacing:0.00688175px;stroke-width:0.82808095px"
     id="path874" /><path
     d="m 89.319282,-13.585336 2.331877,6.3066652 h 0.697796 l 2.340709,-6.3066652 h -0.635967 l -2.031558,5.6442004 h -0.01767 l -2.049224,-5.6442004 z"
     style="font-style:normal;font-variant:normal;font-weight:300;font-stretch:normal;font-family:'Helvetica Neue';-inkscape-font-specification:'Helvetica Neue Light';letter-spacing:0.00688175px;stroke-width:0.82808095px"
     id="path877" /><path
     d="m 94.334376,-7.2786708 h 0.741961 v -0.9362836 h -0.741961 z"
     style="font-style:normal;font-variant:normal;font-weight:300;font-stretch:normal;font-family:'Helvetica Neue';-inkscape-font-specification:'Helvetica Neue Light';letter-spacing:0.00688175px;stroke-width:0.82808095px"
     id="path879" /></g>

</g></svg>