<?xml version="1.0" encoding="utf-8"?>
<!-- Generator: Adobe Illustrator 15.0.0, SVG Export Plug-In . SVG Version: 6.00 Build 0)  -->
<!DOCTYPE svg PUBLIC "-//W3C//DTD SVG 1.0//EN" "http://www.w3.org/TR/2001/REC-SVG-20010904/DTD/svg10.dtd">
<svg version="1.0" id="Layer_1" xmlns="http://www.w3.org/2000/svg" xmlns:xlink="http://www.w3.org/1999/xlink" x="0px" y="0px"
	 viewBox="0 0 3347.72 1057.32" enable-background="new 0 0 3347.72 1057.32"
	 xml:space="preserve">
<g>
	<path fill="#E30613" d="M5.265,352.701h349.502V3.222h349.502v349.479h349.479V702.18H704.269v349.479H354.767V702.18H5.265
		V352.701z"/>
	<g>
		<path d="M1326.306,1.478h124.942c75.05,0,131.438,47.051,131.438,143.2c0,83.97-42.997,146.447-131.438,146.447h-124.942V1.478z
			 M1389.996,237.567h56.792c36.918,0,72.207-22.705,72.207-86.812c0-58.41-20.29-95.733-83.577-95.733h-45.422V237.567z"/>
		<path d="M1665.037,200.246c1.619,36.513,19.471,53.141,51.524,53.141c23.122,0,41.783-14.19,45.434-27.177h50.703
			c-16.223,49.501-50.703,70.589-98.17,70.589c-66.13,0-107.104-45.434-107.104-110.338c0-62.87,43.413-110.742,107.104-110.742
			c71.396,0,105.877,60.028,101.821,124.528H1665.037z M1758.747,163.744c-5.268-29.211-17.852-44.626-45.848-44.626
			c-36.503,0-47.052,28.391-47.862,44.626H1758.747z"/>
		<path d="M2047.171,291.125H1992.4v-29.21h-1.214c-14.604,23.525-39.759,34.884-64.095,34.884
			c-61.253,0-76.678-34.48-76.678-86.408V81.403h57.611v118.438c0,34.492,10.136,51.524,36.918,51.524
			c31.234,0,44.614-17.437,44.614-60.041V81.403h57.613V291.125z"/>
		<path d="M2166.43,81.403h42.187v38.513h-42.187v103.867c0,19.471,4.876,24.335,24.345,24.335c6.079,0,11.764-0.404,17.842-1.618
			v45.029c-9.73,1.618-22.312,2.022-33.672,2.022c-35.288,0-66.117-8.111-66.117-49.894V119.916h-34.896V81.403h34.896V18.51h57.603
			V81.403z"/>
		<path d="M2284.485,222.974c0.404,25.144,21.492,35.289,44.221,35.289c16.617,0,37.705-6.493,37.705-26.784
			c0-17.437-23.92-23.514-65.298-32.446c-33.267-7.292-66.544-19.066-66.544-55.984c0-53.546,46.254-67.331,91.283-67.331
			c45.838,0,88.025,15.414,92.509,66.926h-54.771c-1.642-22.312-18.649-28.39-39.368-28.39c-12.964,0-32.042,2.426-32.042,19.47
			c0,20.695,32.447,23.514,65.321,31.233c33.67,7.707,66.544,19.875,66.544,58.826c0,55.164-47.871,73.016-95.743,73.016
			c-48.693,0-96.149-18.246-98.599-73.825H2284.485z"/>
		<path d="M2597.637,155.227c-3.641-23.537-18.65-36.109-42.592-36.109c-36.918,0-49.097,37.323-49.097,68.152
			c0,30.019,11.773,66.117,47.871,66.117c26.773,0,42.188-17.044,45.862-42.592h55.566c-7.29,55.591-45.838,86.003-101.024,86.003
			c-63.273,0-105.878-44.625-105.878-107.507c0-65.309,38.952-113.574,107.103-113.574c49.502,0,94.924,25.963,98.575,79.509
			H2597.637z"/>
		<path d="M2687.706,1.478h57.603V110.59h1.214c14.604-23.525,39.748-34.873,61.252-34.873c61.265,0,76.679,34.468,76.679,86.407
			v129h-57.603V172.664c0-34.48-10.133-51.524-36.918-51.524c-31.232,0-44.624,17.449-44.624,60.051v109.934h-57.603V1.478z"/>
		<path d="M2972.883,200.246c1.606,36.513,19.469,53.141,51.523,53.141c23.134,0,41.781-14.19,45.422-27.177h50.727
			c-16.235,49.501-50.727,70.589-98.193,70.589c-66.106,0-107.081-45.434-107.081-110.338c0-62.87,43.389-110.742,107.081-110.742
			c71.409,0,105.889,60.028,101.832,124.528H2972.883z M3066.593,163.744c-5.281-29.211-17.865-44.626-45.838-44.626
			c-36.525,0-47.074,28.391-47.872,44.626H3066.593z"/>
		<path d="M3202.895,222.974c0.405,25.144,21.504,35.289,44.221,35.289c16.639,0,37.739-6.493,37.739-26.784
			c0-17.437-23.954-23.514-65.332-32.446c-33.267-7.292-66.51-19.066-66.51-55.984c0-53.546,46.23-67.331,91.249-67.331
			c45.861,0,88.048,15.414,92.509,66.926h-54.771c-1.604-22.312-18.648-28.39-39.344-28.39c-12.987,0-32.042,2.426-32.042,19.47
			c0,20.695,32.458,23.514,65.296,31.233c33.685,7.707,66.546,19.875,66.546,58.826c0,55.164-47.872,73.016-95.745,73.016
			c-48.681,0-96.147-18.246-98.575-73.825H3202.895z"/>
		<path d="M1327.114,380.988h156.176c51.927,0,84.791,36.121,84.791,79.926c0,34.086-13.798,59.634-45.851,72.622v0.799
			c31.244,8.121,40.164,38.547,42.199,67.756c1.213,18.258,0.809,52.334,12.168,68.557h-63.692
			c-7.706-18.258-6.887-46.254-10.144-69.375c-4.461-30.414-16.225-43.807-48.265-43.807h-63.691v113.182h-63.69V380.988z
			 M1390.805,512.032h69.769c28.401,0,43.815-12.168,43.815-41.391c0-27.986-15.414-40.153-43.815-40.153h-69.769V512.032z"/>
		<path d="M1710.461,455.228c66.117,0,108.72,43.816,108.72,110.767c0,66.51-42.603,110.338-108.72,110.338
			c-65.725,0-108.316-43.828-108.316-110.338C1602.145,499.044,1644.736,455.228,1710.461,455.228z M1710.461,632.92
			c39.356,0,51.119-33.672,51.119-66.926c0-33.672-11.763-67.354-51.119-67.354c-38.941,0-50.705,33.683-50.705,67.354
			C1659.756,599.248,1671.52,632.92,1710.461,632.92z"/>
		<path d="M1928.71,460.914h42.187v38.547h-42.187v103.844c0,19.469,4.876,24.334,24.347,24.334c6.077,0,11.763-0.404,17.84-1.617
			v45.029c-9.729,1.617-22.312,2.033-33.659,2.033c-35.301,0-66.13-8.123-66.13-49.906V499.461h-34.896v-38.547h34.896v-62.883
			h57.603V460.914z"/>
		<path d="M2047.159,579.766c1.63,36.525,19.482,53.154,51.524,53.154c23.12,0,41.781-14.191,45.433-27.178h50.715
			c-16.234,49.49-50.715,70.59-98.182,70.59c-66.117,0-107.092-45.445-107.092-110.338c0-62.895,43.401-110.767,107.092-110.767
			c71.397,0,105.889,60.051,101.834,124.538H2047.159z M2140.87,543.266c-5.269-29.211-17.853-44.626-45.838-44.626
			c-36.515,0-47.064,28.402-47.873,44.626H2140.87z"/>
		<path d="M2277.171,602.496c0.406,25.143,21.504,35.289,44.222,35.289c16.639,0,37.739-6.484,37.739-26.762
			c0-17.459-23.955-23.549-65.322-32.459c-33.276-7.303-66.532-19.076-66.532-55.983c0-53.557,46.243-67.354,91.261-67.354
			c45.861,0,88.048,15.414,92.51,66.938h-54.771c-1.606-22.301-18.648-28.391-39.344-28.391c-12.989,0-32.043,2.438-32.043,19.471
			c0,20.682,32.459,23.536,65.297,31.245c33.684,7.707,66.545,19.875,66.545,58.814c0,55.174-47.872,73.027-95.744,73.027
			c-48.681,0-96.148-18.258-98.586-73.836H2277.171z"/>
		<path d="M1326.306,760.51h63.69v120.078l113.181-120.078h79.509l-113.181,114.393l124.134,175.254h-79.925l-87.216-130.225
			l-36.502,36.918v93.307h-63.69V760.51z"/>
		<path d="M1613.098,840.424h54.772v38.951h0.809c10.549-26.369,38.951-44.637,66.938-44.637c4.055,0,8.92,0.82,12.571,2.045v53.533
			c-5.271-1.213-13.785-2.021-20.685-2.021c-42.187,0-56.792,30.436-56.792,67.342v94.52h-57.613V840.424z"/>
		<path d="M1811.139,959.289c1.617,36.512,19.481,53.141,51.524,53.141c23.12,0,41.781-14.189,45.432-27.166h50.716
			c-16.235,49.479-50.716,70.578-98.183,70.578c-66.117,0-107.092-45.436-107.092-110.338c0-62.895,43.402-110.766,107.092-110.766
			c71.398,0,105.889,60.051,101.834,124.551H1811.139z M1904.849,922.775c-5.268-29.211-17.852-44.627-45.838-44.627
			c-36.515,0-47.063,28.402-47.872,44.627H1904.849z"/>
		<path d="M2189.631,1050.156h-54.771v-29.197h-1.224c-14.606,23.525-39.749,34.883-64.096,34.883
			c-61.252,0-76.666-34.48-76.666-86.408v-129.01h57.601v118.449c0,34.49,10.146,51.533,36.918,51.533
			c31.233,0,44.624-17.447,44.624-60.037V840.424h57.613V1050.156z"/>
		<path d="M2221.257,1006.744l109.125-122.908h-101.014v-43.412h176.885v43.412l-109.138,122.908h116.833v43.412h-192.691V1006.744z
			"/>
	</g>
</g>
</svg>
