<?xml version="1.0" encoding="UTF-8" standalone="no"?>
<!-- Created with Inkscape (http://www.inkscape.org/) -->

<svg
   xmlns:dc="http://purl.org/dc/elements/1.1/"
   xmlns:cc="http://creativecommons.org/ns#"
   xmlns:rdf="http://www.w3.org/1999/02/22-rdf-syntax-ns#"
   xmlns:svg="http://www.w3.org/2000/svg"
   xmlns="http://www.w3.org/2000/svg"
   xmlns:sodipodi="http://sodipodi.sourceforge.net/DTD/sodipodi-0.dtd"
   xmlns:inkscape="http://www.inkscape.org/namespaces/inkscape"
   version="1.1"
   id="svg2"
   xml:space="preserve"
   width="210"
   height="50"
   viewBox="0 0 210 50"
   sodipodi:docname="drk-logo-tettnang-lang.svg"
   inkscape:version="0.92.5 (2060ec1f9f, 2020-04-08)"><metadata
     id="metadata8"><rdf:RDF><cc:Work
         rdf:about=""><dc:format>image/svg+xml</dc:format><dc:type
           rdf:resource="http://purl.org/dc/dcmitype/StillImage" /><dc:title /></cc:Work></rdf:RDF></metadata><defs
     id="defs6" /><sodipodi:namedview
     pagecolor="#ffffff"
     bordercolor="#666666"
     borderopacity="1"
     objecttolerance="10"
     gridtolerance="10"
     guidetolerance="10"
     inkscape:pageopacity="0"
     inkscape:pageshadow="2"
     inkscape:window-width="1920"
     inkscape:window-height="1080"
     id="namedview4"
     showgrid="false"
     inkscape:zoom="5.6568543"
     inkscape:cx="70.779971"
     inkscape:cy="28.125949"
     inkscape:window-x="907"
     inkscape:window-y="291"
     inkscape:window-maximized="0"
     inkscape:current-layer="g10" /><g
     id="g10"
     inkscape:groupmode="layer"
     inkscape:label="drk-logo-tettnang-longish"
     transform="matrix(1.3333333,0,0,-1.3333333,0,49.999884)"><g
   transform="matrix(0.34164967,0,0,0.34164967,6.4969384,14.711861)"
   inkscape:label="ink_ext_XXXXXX"
   id="g872"><g
     transform="scale(0.1)"
     id="g874"><path
       inkscape:connector-curvature="0"
       id="path876"
       style="fill:#ed1c24;fill-opacity:1;fill-rule:nonzero;stroke:none"
       d="m 3724.35,337.969 h 168.99 v 168.984 h 169 V 337.969 h 168.98 V 168.984 H 4062.34 V 0 h -169 v 168.984 h -168.99 v 168.985" /><path
       inkscape:connector-curvature="0"
       id="path878"
       style="fill:#231f20;fill-opacity:1;fill-rule:nonzero;stroke:none"
       d="m 50.793,212.316 h 45.2929 c 29.4411,0 57.5861,18.125 57.5861,69.239 0,46.582 -16.18,76.347 -66.6486,76.347 H 50.793 Z M 0,400.605 h 99.6406 c 59.8514,0 104.8244,-37.527 104.8244,-114.199 0,-66.972 -34.297,-116.797 -104.8244,-116.797 H 0 v 230.996" /><path
       inkscape:connector-curvature="0"
       id="path880"
       style="fill:#231f20;fill-opacity:1;fill-rule:nonzero;stroke:none"
       d="m 344.863,271.195 c -4.199,23.293 -14.226,35.59 -36.55,35.59 -29.122,0 -37.532,-22.648 -38.176,-35.59 z m -74.726,-29.109 c 1.289,-29.117 15.527,-42.387 41.086,-42.387 18.437,0 33.32,11.328 36.23,21.68 h 40.438 c -12.938,-39.473 -40.438,-56.301 -78.289,-56.301 -52.735,0 -85.403,36.242 -85.403,88.004 0,50.145 34.61,88.32 85.403,88.32 56.941,0 84.441,-47.882 81.211,-99.316 H 270.137" /><path
       inkscape:connector-curvature="0"
       id="path882"
       style="fill:#231f20;fill-opacity:1;fill-rule:nonzero;stroke:none"
       d="m 574.883,169.609 h -43.68 v 23.301 h -0.969 c -11.648,-18.769 -31.707,-27.832 -51.113,-27.832 -48.855,0 -61.141,27.512 -61.141,68.914 v 102.879 h 45.938 v -94.465 c 0,-27.504 8.086,-41.086 29.434,-41.086 24.91,0 35.593,13.907 35.593,47.879 v 87.672 h 45.938 V 169.609" /><path
       inkscape:connector-curvature="0"
       id="path884"
       style="fill:#231f20;fill-opacity:1;fill-rule:nonzero;stroke:none"
       d="m 669.992,336.871 h 33.641 v -30.734 h -33.641 v -82.824 c 0,-15.528 3.887,-19.407 19.414,-19.407 4.852,0 9.375,0.324 14.227,1.297 v -35.914 c -7.762,-1.293 -17.793,-1.613 -26.844,-1.613 -28.156,0 -52.734,6.465 -52.734,39.785 v 98.676 H 596.23 v 30.734 h 27.825 v 50.152 h 45.937 v -50.152" /><path
       inkscape:connector-curvature="0"
       id="path886"
       style="fill:#231f20;fill-opacity:1;fill-rule:nonzero;stroke:none"
       d="m 764.133,223.965 c 0.32,-20.059 17.148,-28.145 35.262,-28.145 13.261,0 30.089,5.188 30.089,21.36 0,13.906 -19.093,18.758 -52.089,25.879 -26.536,5.82 -53.059,15.199 -53.059,44.636 0,42.707 36.887,53.707 72.793,53.707 36.555,0 70.207,-12.297 73.762,-53.379 h -43.672 c -1.301,17.79 -14.883,22.645 -31.387,22.645 -10.352,0 -25.559,-1.938 -25.559,-15.531 0,-16.5 25.891,-18.766 52.09,-24.907 26.848,-6.148 53.059,-15.859 53.059,-46.917 0,-43.985 -38.176,-58.235 -76.359,-58.235 -38.817,0 -76.668,14.563 -78.602,58.887 h 43.672" /><path
       inkscape:connector-curvature="0"
       id="path888"
       style="fill:#231f20;fill-opacity:1;fill-rule:nonzero;stroke:none"
       d="m 1013.88,277.988 c -2.91,18.766 -14.884,28.797 -33.966,28.797 -29.445,0 -39.152,-29.762 -39.152,-54.351 0,-23.938 9.386,-52.735 38.176,-52.735 21.362,0 33.652,13.594 36.562,33.961 h 44.32 c -5.82,-44.312 -36.55,-68.582 -80.55,-68.582 -50.481,0 -84.446,35.598 -84.446,85.735 0,52.093 31.055,90.589 85.41,90.589 39.466,0 75.706,-20.707 78.616,-63.414 h -44.97" /><path
       inkscape:connector-curvature="0"
       id="path890"
       style="fill:#231f20;fill-opacity:1;fill-rule:nonzero;stroke:none"
       d="m 1085.7,400.605 h 45.94 v -87.027 h 0.97 c 11.64,18.766 31.7,27.824 48.85,27.824 48.86,0 61.14,-27.5 61.14,-68.91 V 169.609 h -45.93 v 94.473 c 0,27.496 -8.09,41.09 -29.45,41.09 -24.9,0 -35.58,-13.918 -35.58,-47.887 v -87.676 h -45.94 v 230.996" /><path
       inkscape:connector-curvature="0"
       id="path892"
       style="fill:#231f20;fill-opacity:1;fill-rule:nonzero;stroke:none"
       d="m 1387.86,271.195 c -4.2,23.293 -14.23,35.59 -36.56,35.59 -29.12,0 -37.53,-22.648 -38.17,-35.59 z m -74.73,-29.109 c 1.29,-29.117 15.53,-42.387 41.08,-42.387 18.44,0 33.32,11.328 36.23,21.68 h 40.44 c -12.94,-39.473 -40.44,-56.301 -78.29,-56.301 -52.72,0 -85.4,36.242 -85.4,88.004 0,50.145 34.61,88.32 85.4,88.32 56.95,0 84.45,-47.882 81.21,-99.316 h -120.67" /><path
       inkscape:connector-curvature="0"
       id="path894"
       style="fill:#231f20;fill-opacity:1;fill-rule:nonzero;stroke:none"
       d="m 1496.56,223.965 c 0.32,-20.059 17.15,-28.145 35.26,-28.145 13.26,0 30.09,5.188 30.09,21.36 0,13.906 -19.09,18.758 -52.09,25.879 -26.53,5.82 -53.06,15.199 -53.06,44.636 0,42.707 36.89,53.707 72.8,53.707 36.55,0 70.2,-12.297 73.76,-53.379 h -43.68 c -1.3,17.79 -14.88,22.645 -31.38,22.645 -10.35,0 -25.56,-1.938 -25.56,-15.531 0,-16.5 25.88,-18.766 52.09,-24.907 26.85,-6.148 53.06,-15.859 53.06,-46.917 0,-43.985 -38.18,-58.235 -76.35,-58.235 -38.83,0 -76.68,14.563 -78.61,58.887 h 43.67" /><path
       inkscape:connector-curvature="0"
       id="path896"
       style="fill:#231f20;fill-opacity:1;fill-rule:nonzero;stroke:none"
       d="m 1780.28,296.113 h 55.64 c 22.65,0 34.93,9.7 34.93,32.992 0,22.325 -12.28,32.032 -34.93,32.032 h -55.64 z m -50.8,104.492 h 124.56 c 41.4,0 67.62,-28.792 67.62,-63.734 0,-27.172 -11.01,-47.558 -36.57,-57.906 v -0.649 c 24.91,-6.468 32.03,-30.738 33.65,-54.027 0.97,-14.551 0.65,-41.73 9.7,-54.68 h -50.79 c -6.14,14.563 -5.5,36.883 -8.08,55.332 -3.57,24.258 -12.94,34.93 -38.5,34.93 h -50.79 v -90.262 h -50.8 v 230.996" /><path
       inkscape:connector-curvature="0"
       id="path898"
       style="fill:#231f20;fill-opacity:1;fill-rule:nonzero;stroke:none"
       d="m 2035.2,199.699 c 31.38,0 40.76,26.856 40.76,53.383 0,26.852 -9.38,53.703 -40.76,53.703 -31.05,0 -40.44,-26.851 -40.44,-53.703 0,-26.527 9.39,-53.383 40.44,-53.383 z m 0,141.703 c 52.73,0 86.7,-34.941 86.7,-88.32 0,-53.051 -33.97,-88.004 -86.7,-88.004 -52.41,0 -86.38,34.953 -86.38,88.004 0,53.379 33.97,88.32 86.38,88.32" /><path
       inkscape:connector-curvature="0"
       id="path900"
       style="fill:#231f20;fill-opacity:1;fill-rule:nonzero;stroke:none"
       d="m 2209.25,336.871 h 33.64 v -30.734 h -33.64 v -82.824 c 0,-15.528 3.89,-19.407 19.41,-19.407 4.85,0 9.38,0.324 14.23,1.297 v -35.914 c -7.77,-1.293 -17.79,-1.613 -26.84,-1.613 -28.15,0 -52.74,6.465 -52.74,39.785 v 98.676 h -27.82 v 30.734 h 27.82 v 50.152 h 45.94 v -50.152" /><path
       inkscape:connector-curvature="0"
       id="path902"
       style="fill:#231f20;fill-opacity:1;fill-rule:nonzero;stroke:none"
       d="m 2378.44,271.195 c -4.2,23.293 -14.23,35.59 -36.55,35.59 -29.12,0 -37.53,-22.648 -38.18,-35.59 z m -74.73,-29.109 c 1.29,-29.117 15.53,-42.387 41.09,-42.387 18.44,0 33.32,11.328 36.23,21.68 h 40.44 c -12.93,-39.473 -40.44,-56.301 -78.28,-56.301 -52.75,0 -85.42,36.242 -85.42,88.004 0,50.145 34.63,88.32 85.42,88.32 56.93,0 84.42,-47.882 81.19,-99.316 h -120.67" /><path
       inkscape:connector-curvature="0"
       id="path904"
       style="fill:#231f20;fill-opacity:1;fill-rule:nonzero;stroke:none"
       d="m 2487.14,223.965 c 0.32,-20.059 17.15,-28.145 35.27,-28.145 13.26,0 30.09,5.188 30.09,21.36 0,13.906 -19.1,18.758 -52.09,25.879 -26.54,5.82 -53.07,15.199 -53.07,44.636 0,42.707 36.88,53.707 72.8,53.707 36.56,0 70.2,-12.297 73.76,-53.379 h -43.68 c -1.28,17.79 -14.88,22.645 -31.38,22.645 -10.34,0 -25.55,-1.938 -25.55,-15.531 0,-16.5 25.89,-18.766 52.09,-24.907 26.84,-6.148 53.05,-15.859 53.05,-46.917 0,-43.985 -38.17,-58.235 -76.35,-58.235 -38.81,0 -76.67,14.563 -78.61,58.887 h 43.67" /><path
       inkscape:connector-curvature="0"
       id="path906"
       style="fill:#231f20;fill-opacity:1;fill-rule:nonzero;stroke:none"
       d="m 2720.06,400.605 h 50.79 v -95.761 l 90.27,95.761 h 63.41 l -90.26,-91.234 99,-139.762 h -63.74 l -69.55,103.852 -29.13,-29.441 v -74.411 h -50.79 v 230.996" /><path
       inkscape:connector-curvature="0"
       id="path908"
       style="fill:#231f20;fill-opacity:1;fill-rule:nonzero;stroke:none"
       d="m 2948.79,336.871 h 43.68 v -31.058 h 0.64 c 8.41,21.035 31.05,35.589 53.38,35.589 3.23,0 7.12,-0.648 10.03,-1.617 v -42.707 c -4.2,0.969 -11.01,1.617 -16.5,1.617 -33.65,0 -45.3,-24.265 -45.3,-53.703 v -75.383 h -45.93 v 167.262" /><path
       inkscape:connector-curvature="0"
       id="path910"
       style="fill:#231f20;fill-opacity:1;fill-rule:nonzero;stroke:none"
       d="m 3181.45,271.195 c -4.2,23.293 -14.23,35.59 -36.55,35.59 -29.12,0 -37.53,-22.648 -38.18,-35.59 z m -74.73,-29.109 c 1.29,-29.117 15.53,-42.387 41.09,-42.387 18.44,0 33.32,11.328 36.23,21.68 h 40.44 c -12.93,-39.473 -40.44,-56.301 -78.28,-56.301 -52.75,0 -85.42,36.242 -85.42,88.004 0,50.145 34.63,88.32 85.42,88.32 56.93,0 84.43,-47.882 81.19,-99.316 h -120.67" /><path
       inkscape:connector-curvature="0"
       id="path912"
       style="fill:#231f20;fill-opacity:1;fill-rule:nonzero;stroke:none"
       d="m 3408.56,169.609 h -43.68 v 23.301 h -0.96 c -11.65,-18.769 -31.72,-27.832 -51.12,-27.832 -48.85,0 -61.15,27.512 -61.15,68.914 v 102.879 h 45.94 v -94.465 c 0,-27.504 8.1,-41.086 29.45,-41.086 24.91,0 35.58,13.907 35.58,47.879 v 87.672 h 45.94 V 169.609" /><path
       inkscape:connector-curvature="0"
       id="path914"
       style="fill:#231f20;fill-opacity:1;fill-rule:nonzero;stroke:none"
       d="m 3433.78,204.23 87.04,98.028 h -80.56 v 34.613 h 141.04 v -34.613 l -87.02,-98.028 h 93.18 v -34.621 h -153.68 v 34.621" /></g></g><g
   aria-label="Ortsverein Tettnang e.V."
   transform="scale(1,-1)"
   style="font-style:normal;font-variant:normal;font-weight:bold;font-stretch:normal;font-size:8.83286381px;line-height:125%;font-family:'Helvetica Neue';-inkscape-font-specification:'Helvetica Neue Bold';letter-spacing:0px;word-spacing:0px;fill:#000000;fill-opacity:1;stroke:none;stroke-width:0.82808095px;stroke-linecap:butt;stroke-linejoin:miter;stroke-opacity:1"
   id="text961"><path
     d="m 6.9959109,-10.432003 q 0,-0.521139 0.1324929,-1.01578 0.1413259,-0.49464 0.4239775,-0.883286 0.2914845,-0.397479 0.7419606,-0.635966 0.450476,-0.238487 1.0776094,-0.238487 0.6271333,0 1.0687767,0.238487 0.450476,0.238487 0.733127,0.635966 0.291485,0.388646 0.423978,0.883286 0.141326,0.494641 0.141326,1.01578 0,0.5123059 -0.141326,1.0157792 -0.132493,0.4946403 -0.423978,0.8921192 -0.282651,0.388646 -0.733127,0.6271333 -0.4416434,0.2384874 -1.0687767,0.2384874 -0.6271334,0 -1.0776094,-0.2384874 Q 7.8438658,-8.1354586 7.5523813,-8.5241046 7.2697297,-8.9215835 7.1284038,-9.4162238 6.9959109,-9.9196971 6.9959109,-10.432003 Z m -0.6006347,0 q 0,0.6536318 0.1854901,1.2454336 0.1854901,0.5918019 0.5564704,1.042278 0.3709803,0.450476 0.9274507,0.7242948 0.5653033,0.2649859 1.3072639,0.2649859 0.7419607,0 1.2984307,-0.2649859 0.556471,-0.2738188 0.927451,-0.7242948 0.37098,-0.4504761 0.55647,-1.042278 0.18549,-0.5918018 0.18549,-1.2454336 0,-0.653632 -0.18549,-1.245434 -0.18549,-0.591802 -0.55647,-1.042278 -0.37098,-0.459309 -0.927451,-0.724295 -0.55647,-0.273819 -1.2984307,-0.273819 -0.7419606,0 -1.3072639,0.273819 -0.5564704,0.264986 -0.9274507,0.724295 -0.3709803,0.450476 -0.5564704,1.042278 -0.1854901,0.591802 -0.1854901,1.245434 z"
     style="font-style:normal;font-variant:normal;font-weight:300;font-stretch:normal;font-family:'Helvetica Neue';-inkscape-font-specification:'Helvetica Neue Light';letter-spacing:0.00688175px;stroke-width:0.82808095px"
     id="path836" /><path
     d="m 13.176957,-11.836429 v 4.5577582 h 0.556471 v -2.4290375 q 0,-0.3621477 0.12366,-0.6624647 0.12366,-0.30915 0.344482,-0.529972 0.229654,-0.220822 0.538804,-0.335649 0.30915,-0.12366 0.688964,-0.105994 v -0.556471 q -0.618301,-0.0265 -1.068777,0.273819 -0.441643,0.300318 -0.653632,0.856788 h -0.01767 v -1.068777 z"
     style="font-style:normal;font-variant:normal;font-weight:300;font-stretch:normal;font-family:'Helvetica Neue';-inkscape-font-specification:'Helvetica Neue Light';letter-spacing:0.00688175px;stroke-width:0.82808095px"
     id="path838" /><path
     d="m 16.849466,-11.836429 v -1.369093 h -0.556471 v 1.369093 h -0.794958 v 0.468142 h 0.794958 v 3.1180012 q -0.0088,0.582969 0.211989,0.8037906 0.220821,0.2119887 0.777292,0.2119887 0.12366,0 0.24732,-0.00883 0.12366,-0.00883 0.24732,-0.00883 V -7.720314 q -0.238487,0.026499 -0.476974,0.026499 -0.300318,-0.017666 -0.379814,-0.1678244 -0.07066,-0.1589915 -0.07066,-0.4328103 v -3.0738369 h 0.92745 v -0.468142 z"
     style="font-style:normal;font-variant:normal;font-weight:300;font-stretch:normal;font-family:'Helvetica Neue';-inkscape-font-specification:'Helvetica Neue Light';letter-spacing:0.00688175px;stroke-width:0.82808095px"
     id="path840" /><path
     d="m 21.31694,-10.502666 h 0.55647 q -0.01767,-0.37098 -0.150159,-0.644799 -0.132493,-0.273819 -0.362147,-0.459309 -0.220822,-0.18549 -0.521139,-0.273819 -0.291485,-0.08833 -0.635966,-0.08833 -0.300318,0 -0.609468,0.07066 -0.300317,0.07066 -0.547637,0.220822 -0.247321,0.150159 -0.406312,0.397479 -0.150159,0.24732 -0.150159,0.591802 0,0.291484 0.09716,0.49464 0.09716,0.1943232 0.264986,0.335649 0.176657,0.1324929 0.406311,0.2296544 0.229655,0.088329 0.503474,0.1589916 l 0.715462,0.1589915 q 0.18549,0.044164 0.362147,0.1059944 0.18549,0.06183 0.326816,0.1589916 0.141326,0.088329 0.220822,0.2296544 0.08833,0.132493 0.08833,0.3356488 0,0.2384874 -0.12366,0.4063118 -0.114827,0.1589915 -0.300317,0.2649859 -0.18549,0.1059943 -0.406312,0.1501587 -0.211989,0.044164 -0.415145,0.044164 -0.55647,0 -0.936283,-0.2826517 -0.37098,-0.2914845 -0.406312,-0.8567877 h -0.55647 q 0.07066,0.839122 0.565303,1.2189352 0.503473,0.3798131 1.307264,0.3798131 0.317983,0 0.644799,-0.070663 0.326816,-0.070663 0.582969,-0.2296545 0.264986,-0.1678244 0.43281,-0.4239774 0.167825,-0.2649859 0.167825,-0.6359662 0,-0.3003174 -0.114828,-0.521139 Q 21.802747,-9.2572323 21.617257,-9.407391 21.4406,-9.5575497 21.202112,-9.6458783 20.972458,-9.7430398 20.733971,-9.7783712 L 19.99201,-9.9461957 q -0.141326,-0.035331 -0.30915,-0.088328 -0.167825,-0.06183 -0.30915,-0.150159 -0.141326,-0.08833 -0.238488,-0.211989 -0.08833,-0.132493 -0.08833,-0.317983 0,-0.220821 0.09716,-0.37098 0.09716,-0.150159 0.256153,-0.238487 0.158992,-0.09716 0.344482,-0.132493 0.194323,-0.04417 0.379813,-0.04417 0.238487,0 0.450476,0.06183 0.211989,0.053 0.37098,0.176658 0.167825,0.12366 0.264986,0.317983 0.09716,0.18549 0.105995,0.441643 z"
     style="font-style:normal;font-variant:normal;font-weight:300;font-stretch:normal;font-family:'Helvetica Neue';-inkscape-font-specification:'Helvetica Neue Light';letter-spacing:0.00688175px;stroke-width:0.82808095px"
     id="path842" /><path
     d="m 22.330758,-11.836429 1.75774,4.5577582 H 24.6803 l 1.704743,-4.5577582 h -0.574136 l -1.413258,4.0012878 h -0.01767 l -1.430924,-4.0012878 z"
     style="font-style:normal;font-variant:normal;font-weight:300;font-stretch:normal;font-family:'Helvetica Neue';-inkscape-font-specification:'Helvetica Neue Light';letter-spacing:0.00688175px;stroke-width:0.82808095px"
     id="path844" /><path
     d="m 30.21655,-9.8755327 h -2.950177 q 0.03533,-0.3091503 0.141326,-0.6006343 0.114827,-0.300318 0.300317,-0.521139 0.185491,-0.229655 0.450477,-0.362148 0.264985,-0.141326 0.609467,-0.141326 0.335649,0 0.600635,0.141326 0.264986,0.132493 0.450476,0.362148 0.18549,0.220821 0.282652,0.512306 0.105994,0.291484 0.114827,0.6094673 z m -2.950177,0.4681417 h 3.506647 q 0.01767,-0.4769746 -0.08833,-0.936284 -0.105995,-0.468141 -0.353315,-0.821456 -0.238487,-0.362147 -0.627133,-0.582969 -0.388646,-0.220821 -0.936284,-0.220821 -0.538805,0 -0.936283,0.211988 -0.388646,0.203156 -0.635967,0.547638 -0.24732,0.335649 -0.37098,0.768459 -0.114827,0.43281 -0.114827,0.8832863 0,0.4858076 0.114827,0.9274507 0.12366,0.4328104 0.37098,0.7684592 0.247321,0.326816 0.635967,0.521139 0.397478,0.1854901 0.936283,0.1854901 0.865621,0 1.333763,-0.4239775 0.476974,-0.4239774 0.653631,-1.2012694 h -0.55647 q -0.132493,0.5299718 -0.476975,0.8479549 -0.344481,0.3179831 -0.953949,0.3179831 -0.397479,0 -0.68013,-0.1678244 -0.282652,-0.1678244 -0.468142,-0.4239775 -0.18549,-0.256153 -0.273819,-0.5741361 -0.0795,-0.326816 -0.0795,-0.6271334 z"
     style="font-style:normal;font-variant:normal;font-weight:300;font-stretch:normal;font-family:'Helvetica Neue';-inkscape-font-specification:'Helvetica Neue Light';letter-spacing:0.00688175px;stroke-width:0.82808095px"
     id="path846" /><path
     d="m 31.530687,-11.836429 v 4.5577582 h 0.55647 v -2.4290375 q 0,-0.3621477 0.12366,-0.6624647 0.12366,-0.30915 0.344482,-0.529972 0.229654,-0.220822 0.538805,-0.335649 0.30915,-0.12366 0.688963,-0.105994 v -0.556471 q -0.618301,-0.0265 -1.068777,0.273819 -0.441643,0.300318 -0.653632,0.856788 h -0.01766 v -1.068777 z"
     style="font-style:normal;font-variant:normal;font-weight:300;font-stretch:normal;font-family:'Helvetica Neue';-inkscape-font-specification:'Helvetica Neue Light';letter-spacing:0.00688175px;stroke-width:0.82808095px"
     id="path848" /><path
     d="m 37.437896,-9.8755327 h -2.950177 q 0.03533,-0.3091503 0.141326,-0.6006343 0.114827,-0.300318 0.300317,-0.521139 0.18549,-0.229655 0.450476,-0.362148 0.264986,-0.141326 0.609468,-0.141326 0.335649,0 0.600635,0.141326 0.264986,0.132493 0.450476,0.362148 0.18549,0.220821 0.282651,0.512306 0.105995,0.291484 0.114828,0.6094673 z m -2.950177,0.4681417 h 3.506647 q 0.01767,-0.4769746 -0.08833,-0.936284 -0.105994,-0.468141 -0.353314,-0.821456 -0.238487,-0.362147 -0.627133,-0.582969 -0.388646,-0.220821 -0.936284,-0.220821 -0.538805,0 -0.936284,0.211988 -0.388646,0.203156 -0.635966,0.547638 -0.24732,0.335649 -0.37098,0.768459 -0.114827,0.43281 -0.114827,0.8832863 0,0.4858076 0.114827,0.9274507 0.12366,0.4328104 0.37098,0.7684592 0.24732,0.326816 0.635966,0.521139 0.397479,0.1854901 0.936284,0.1854901 0.865621,0 1.333762,-0.4239775 0.476975,-0.4239774 0.653632,-1.2012694 h -0.55647 q -0.132493,0.5299718 -0.476975,0.8479549 -0.344481,0.3179831 -0.953949,0.3179831 -0.397479,0 -0.68013,-0.1678244 -0.282652,-0.1678244 -0.468142,-0.4239775 -0.18549,-0.256153 -0.273819,-0.5741361 -0.0795,-0.326816 -0.0795,-0.6271334 z"
     style="font-style:normal;font-variant:normal;font-weight:300;font-stretch:normal;font-family:'Helvetica Neue';-inkscape-font-specification:'Helvetica Neue Light';letter-spacing:0.00688175px;stroke-width:0.82808095px"
     id="path850" /><path
     d="m 38.760865,-13.585336 v 0.89212 h 0.556471 v -0.89212 z m 0,1.748907 v 4.5577582 h 0.556471 v -4.5577582 z"
     style="font-style:normal;font-variant:normal;font-weight:300;font-stretch:normal;font-family:'Helvetica Neue';-inkscape-font-specification:'Helvetica Neue Light';letter-spacing:0.00688175px;stroke-width:0.82808095px"
     id="path852" /><path
     d="m 40.384157,-11.836429 v 4.5577582 h 0.55647 v -2.658692 q 0.0088,-0.3356492 0.105994,-0.6183002 0.105995,-0.291485 0.282652,-0.494641 0.18549,-0.211988 0.441643,-0.326816 0.264986,-0.12366 0.600635,-0.12366 0.335649,0 0.55647,0.105995 0.229655,0.105994 0.362148,0.291484 0.132493,0.18549 0.18549,0.441643 0.053,0.247321 0.053,0.538805 v 2.8441822 h 0.55647 v -2.9325112 q 0,-0.406311 -0.0795,-0.733127 -0.0795,-0.326816 -0.273819,-0.547638 -0.194323,-0.229654 -0.521139,-0.353314 -0.317983,-0.12366 -0.794958,-0.12366 -0.485807,0 -0.892119,0.256153 -0.406312,0.24732 -0.565303,0.662464 h -0.01767 v -0.786125 z"
     style="font-style:normal;font-variant:normal;font-weight:300;font-stretch:normal;font-family:'Helvetica Neue';-inkscape-font-specification:'Helvetica Neue Light';letter-spacing:0.00688175px;stroke-width:0.82808095px"
     id="path854" /><path
     d="m 47.040222,-13.585336 v 0.512307 h 2.19055 v 5.7943582 h 0.600635 v -5.7943582 h 2.199383 v -0.512307 z"
     style="font-style:normal;font-variant:normal;font-weight:300;font-stretch:normal;font-family:'Helvetica Neue';-inkscape-font-specification:'Helvetica Neue Light';letter-spacing:0.00688175px;stroke-width:0.82808095px"
     id="path856" /><path
     d="m 54.820022,-9.8755327 h -2.950177 q 0.03533,-0.3091503 0.141326,-0.6006343 0.114827,-0.300318 0.300317,-0.521139 0.18549,-0.229655 0.450476,-0.362148 0.264986,-0.141326 0.609468,-0.141326 0.335649,0 0.600635,0.141326 0.264986,0.132493 0.450476,0.362148 0.18549,0.220821 0.282651,0.512306 0.105995,0.291484 0.114828,0.6094673 z m -2.950177,0.4681417 h 3.506647 q 0.01767,-0.4769746 -0.08833,-0.936284 -0.105994,-0.468141 -0.353314,-0.821456 -0.238488,-0.362147 -0.627134,-0.582969 -0.388646,-0.220821 -0.936283,-0.220821 -0.538805,0 -0.936284,0.211988 -0.388646,0.203156 -0.635966,0.547638 -0.24732,0.335649 -0.37098,0.768459 -0.114827,0.43281 -0.114827,0.8832863 0,0.4858076 0.114827,0.9274507 0.12366,0.4328104 0.37098,0.7684592 0.24732,0.326816 0.635966,0.521139 0.397479,0.1854901 0.936284,0.1854901 0.865621,0 1.333762,-0.4239775 0.476975,-0.4239774 0.653632,-1.2012694 h -0.55647 q -0.132493,0.5299718 -0.476975,0.8479549 -0.344482,0.3179831 -0.953949,0.3179831 -0.397479,0 -0.680131,-0.1678244 -0.282651,-0.1678244 -0.468141,-0.4239775 -0.185491,-0.256153 -0.273819,-0.5741361 -0.0795,-0.326816 -0.0795,-0.6271334 z"
     style="font-style:normal;font-variant:normal;font-weight:300;font-stretch:normal;font-family:'Helvetica Neue';-inkscape-font-specification:'Helvetica Neue Light';letter-spacing:0.00688175px;stroke-width:0.82808095px"
     id="path858" /><path
     d="m 57.017445,-11.836429 v -1.369093 h -0.556471 v 1.369093 h -0.794957 v 0.468142 h 0.794957 v 3.1180012 q -0.0088,0.582969 0.211989,0.8037906 0.220822,0.2119887 0.777292,0.2119887 0.12366,0 0.24732,-0.00883 0.12366,-0.00883 0.24732,-0.00883 V -7.720314 q -0.238487,0.026499 -0.476974,0.026499 -0.300318,-0.017666 -0.379813,-0.1678244 -0.07066,-0.1589915 -0.07066,-0.4328103 v -3.0738369 h 0.92745 v -0.468142 z"
     style="font-style:normal;font-variant:normal;font-weight:300;font-stretch:normal;font-family:'Helvetica Neue';-inkscape-font-specification:'Helvetica Neue Light';letter-spacing:0.00688175px;stroke-width:0.82808095px"
     id="path860" /><path
     d="m 59.638851,-11.836429 v -1.369093 h -0.55647 v 1.369093 h -0.794958 v 0.468142 h 0.794958 v 3.1180012 q -0.0088,0.582969 0.211989,0.8037906 0.220821,0.2119887 0.777292,0.2119887 0.12366,0 0.24732,-0.00883 0.12366,-0.00883 0.24732,-0.00883 V -7.720314 q -0.238487,0.026499 -0.476975,0.026499 -0.300317,-0.017666 -0.379813,-0.1678244 -0.07066,-0.1589915 -0.07066,-0.4328103 v -3.0738369 h 0.927451 v -0.468142 z"
     style="font-style:normal;font-variant:normal;font-weight:300;font-stretch:normal;font-family:'Helvetica Neue';-inkscape-font-specification:'Helvetica Neue Light';letter-spacing:0.00688175px;stroke-width:0.82808095px"
     id="path862" /><path
     d="m 61.368135,-11.836429 v 4.5577582 h 0.55647 v -2.658692 q 0.0088,-0.3356492 0.105995,-0.6183002 0.105994,-0.291485 0.282651,-0.494641 0.18549,-0.211988 0.441643,-0.326816 0.264986,-0.12366 0.600635,-0.12366 0.335649,0 0.556471,0.105995 0.229654,0.105994 0.362147,0.291484 0.132493,0.18549 0.18549,0.441643 0.053,0.247321 0.053,0.538805 v 2.8441822 h 0.556471 v -2.9325112 q 0,-0.406311 -0.0795,-0.733127 -0.0795,-0.326816 -0.273819,-0.547638 -0.194323,-0.229654 -0.521139,-0.353314 -0.317983,-0.12366 -0.794958,-0.12366 -0.485807,0 -0.892119,0.256153 -0.406312,0.24732 -0.565303,0.662464 h -0.01767 v -0.786125 z"
     style="font-style:normal;font-variant:normal;font-weight:300;font-stretch:normal;font-family:'Helvetica Neue';-inkscape-font-specification:'Helvetica Neue Light';letter-spacing:0.00688175px;stroke-width:0.82808095px"
     id="path864" /><path
     d="m 66.074093,-10.440836 h 0.55647 q 0.01767,-0.55647 0.353315,-0.803791 0.335648,-0.256153 0.86562,-0.256153 0.24732,0 0.459309,0.04417 0.220822,0.03533 0.379813,0.141325 0.167825,0.105995 0.256153,0.291485 0.09716,0.176657 0.09716,0.459309 0,0.18549 -0.053,0.300317 -0.04417,0.114827 -0.132493,0.18549 -0.08833,0.06183 -0.220822,0.088329 -0.132493,0.026499 -0.30915,0.044164 -0.450476,0.052997 -0.892119,0.1148273 -0.432811,0.052997 -0.786125,0.194323 -0.344482,0.1413258 -0.556471,0.4151446 -0.211988,0.2649859 -0.211988,0.7419605 0,0.3444817 0.114827,0.6006348 0.12366,0.2473202 0.326816,0.4151446 0.211988,0.1589915 0.485807,0.2296544 0.282652,0.079496 0.600635,0.079496 0.335649,0 0.574136,-0.06183 0.24732,-0.06183 0.43281,-0.1766573 0.194323,-0.1148272 0.344482,-0.2826517 0.158992,-0.1766572 0.30915,-0.3974788 h 0.01767 q 0,0.1766572 0.01767,0.3268159 0.0265,0.1413259 0.09716,0.2473202 0.07066,0.1059944 0.194323,0.1678244 0.132493,0.052997 0.344482,0.052997 0.114827,0 0.18549,-0.00883 0.0795,-0.00883 0.176657,-0.026498 V -7.782144 q -0.07949,0.035331 -0.176657,0.035331 -0.326816,0 -0.326816,-0.3356488 v -2.4202046 q 0,-0.459309 -0.150158,-0.741961 -0.150159,-0.291484 -0.388646,-0.450476 -0.238488,-0.158991 -0.538805,-0.211988 -0.300318,-0.06183 -0.600635,-0.06183 -0.397479,0 -0.724295,0.08833 -0.326816,0.08833 -0.574136,0.273819 -0.238487,0.18549 -0.379813,0.476975 -0.141326,0.291484 -0.167824,0.688963 z m 2.967842,0.6712976 v 0.7242949 q 0,0.3356488 -0.132493,0.6006347 -0.12366,0.2649859 -0.344482,0.450476 -0.211989,0.1854902 -0.503473,0.2826517 -0.291485,0.097162 -0.609468,0.097162 -0.194323,0 -0.379813,-0.06183 -0.18549,-0.06183 -0.326816,-0.1766572 -0.141326,-0.1236601 -0.229654,-0.2826517 -0.0795,-0.1678244 -0.0795,-0.3798131 0,-0.3356488 0.194323,-0.5123061 0.203156,-0.1854902 0.512306,-0.2826517 0.30915,-0.097162 0.680131,-0.1413258 0.379813,-0.052997 0.733127,-0.1148272 0.114828,-0.017666 0.264986,-0.06183 0.150159,-0.044164 0.203156,-0.1413258 z"
     style="font-style:normal;font-variant:normal;font-weight:300;font-stretch:normal;font-family:'Helvetica Neue';-inkscape-font-specification:'Helvetica Neue Light';letter-spacing:0.00688175px;stroke-width:0.82808095px"
     id="path866" /><path
     d="m 70.709382,-11.836429 v 4.5577582 h 0.556471 v -2.658692 q 0.0088,-0.3356492 0.105994,-0.6183002 0.105995,-0.291485 0.282652,-0.494641 0.18549,-0.211988 0.441643,-0.326816 0.264986,-0.12366 0.600635,-0.12366 0.335649,0 0.55647,0.105995 0.229655,0.105994 0.362148,0.291484 0.132493,0.18549 0.18549,0.441643 0.053,0.247321 0.053,0.538805 v 2.8441822 h 0.55647 v -2.9325112 q 0,-0.406311 -0.0795,-0.733127 -0.0795,-0.326816 -0.273819,-0.547638 -0.194323,-0.229654 -0.521139,-0.353314 -0.317983,-0.12366 -0.794958,-0.12366 -0.485807,0 -0.892119,0.256153 -0.406312,0.24732 -0.565303,0.662464 h -0.01767 v -0.786125 z"
     style="font-style:normal;font-variant:normal;font-weight:300;font-stretch:normal;font-family:'Helvetica Neue';-inkscape-font-specification:'Helvetica Neue Light';letter-spacing:0.00688175px;stroke-width:0.82808095px"
     id="path868" /><path
     d="m 79.319466,-7.6496511 v -4.1867779 h -0.556471 v 0.786125 h -0.01767 q -0.0795,-0.18549 -0.229655,-0.353314 -0.141326,-0.167825 -0.326816,-0.291485 -0.18549,-0.132493 -0.415144,-0.203156 -0.220822,-0.07066 -0.476975,-0.07066 -0.49464,0 -0.883286,0.18549 -0.379813,0.176657 -0.644799,0.49464 -0.256153,0.30915 -0.397479,0.733128 -0.132493,0.415144 -0.132493,0.8832861 0,0.4858075 0.114827,0.9186179 0.114827,0.4239774 0.362147,0.7419605 0.256154,0.3179831 0.6448,0.5034733 0.388646,0.1766572 0.936283,0.1766572 0.503473,0 0.874454,-0.256153 0.379813,-0.2561531 0.574136,-0.6801305 h 0.01767 v 0.6183004 q 0,0.8302892 -0.344481,1.2719324 -0.344482,0.4416432 -1.121774,0.4416432 -0.229654,0 -0.450476,-0.052997 -0.220822,-0.044164 -0.406312,-0.1501587 -0.176657,-0.1059943 -0.30915,-0.2826516 -0.12366,-0.1678244 -0.167824,-0.4239775 h -0.556471 q 0.0265,0.3621475 0.194323,0.6183005 0.176658,0.2649859 0.432811,0.4328103 0.264985,0.1678244 0.591801,0.2473202 0.326816,0.079496 0.671298,0.079496 0.556471,0 0.936284,-0.1501587 0.388646,-0.1501587 0.627133,-0.4328103 0.238487,-0.2826517 0.344482,-0.6889634 0.114827,-0.4063117 0.114827,-0.909785 z M 77.29674,-7.7998098 q -0.388646,0 -0.671298,-0.1501586 -0.282651,-0.1589916 -0.468141,-0.4063118 -0.18549,-0.256153 -0.273819,-0.582969 -0.08833,-0.3268159 -0.08833,-0.6712976 0,-0.3533146 0.0795,-0.6889632 0.08833,-0.344482 0.273819,-0.609468 0.18549,-0.264986 0.468142,-0.423977 0.282651,-0.167825 0.68013,-0.167825 0.397479,0 0.671298,0.167825 0.282651,0.167824 0.459309,0.441643 0.176657,0.273819 0.256153,0.609468 0.0795,0.3356483 0.0795,0.6712972 0,0.3444817 -0.09716,0.6712976 -0.08833,0.326816 -0.273819,0.582969 -0.18549,0.2473202 -0.459309,0.4063118 -0.273818,0.1501586 -0.635966,0.1501586 z"
     style="font-style:normal;font-variant:normal;font-weight:300;font-stretch:normal;font-family:'Helvetica Neue';-inkscape-font-specification:'Helvetica Neue Light';letter-spacing:0.00688175px;stroke-width:0.82808095px"
     id="path870" /><path
     d="m 86.125701,-9.8755327 h -2.950177 q 0.03533,-0.3091503 0.141326,-0.6006343 0.114827,-0.300318 0.300318,-0.521139 0.18549,-0.229655 0.450476,-0.362148 0.264986,-0.141326 0.609467,-0.141326 0.335649,0 0.600635,0.141326 0.264986,0.132493 0.450476,0.362148 0.18549,0.220821 0.282652,0.512306 0.105994,0.291484 0.114827,0.6094673 z m -2.950177,0.4681417 h 3.506647 q 0.01767,-0.4769746 -0.08833,-0.936284 -0.105995,-0.468141 -0.353315,-0.821456 -0.238487,-0.362147 -0.627133,-0.582969 -0.388646,-0.220821 -0.936284,-0.220821 -0.538805,0 -0.936283,0.211988 -0.388646,0.203156 -0.635967,0.547638 -0.24732,0.335649 -0.37098,0.768459 -0.114827,0.43281 -0.114827,0.8832863 0,0.4858076 0.114827,0.9274507 0.12366,0.4328104 0.37098,0.7684592 0.247321,0.326816 0.635967,0.521139 0.397478,0.1854901 0.936283,0.1854901 0.865621,0 1.333763,-0.4239775 0.476974,-0.4239774 0.653632,-1.2012694 h -0.556471 q -0.132493,0.5299718 -0.476975,0.8479549 -0.344481,0.3179831 -0.953949,0.3179831 -0.397479,0 -0.68013,-0.1678244 -0.282652,-0.1678244 -0.468142,-0.4239775 -0.18549,-0.256153 -0.273819,-0.5741361 -0.0795,-0.326816 -0.0795,-0.6271334 z"
     style="font-style:normal;font-variant:normal;font-weight:300;font-stretch:normal;font-family:'Helvetica Neue';-inkscape-font-specification:'Helvetica Neue Light';letter-spacing:0.00688175px;stroke-width:0.82808095px"
     id="path872" /><path
     d="m 87.76665,-7.2786708 h 0.74196 v -0.9362836 h -0.74196 z"
     style="font-style:normal;font-variant:normal;font-weight:300;font-stretch:normal;font-family:'Helvetica Neue';-inkscape-font-specification:'Helvetica Neue Light';letter-spacing:0.00688175px;stroke-width:0.82808095px"
     id="path874" /><path
     d="m 89.319282,-13.585336 2.331877,6.3066652 h 0.697796 l 2.340709,-6.3066652 h -0.635967 l -2.031558,5.6442004 h -0.01767 l -2.049224,-5.6442004 z"
     style="font-style:normal;font-variant:normal;font-weight:300;font-stretch:normal;font-family:'Helvetica Neue';-inkscape-font-specification:'Helvetica Neue Light';letter-spacing:0.00688175px;stroke-width:0.82808095px"
     id="path877" /><path
     d="m 94.334376,-7.2786708 h 0.741961 v -0.9362836 h -0.741961 z"
     style="font-style:normal;font-variant:normal;font-weight:300;font-stretch:normal;font-family:'Helvetica Neue';-inkscape-font-specification:'Helvetica Neue Light';letter-spacing:0.00688175px;stroke-width:0.82808095px"
     id="path879" /></g>

</g></svg>